<svg width="49" height="13" viewBox="0 0 49 13" fill="none" xmlns="http://www.w3.org/2000/svg">
<path d="M0 5.06186H5.25578V0.000976562H0V5.06186Z" fill="white"/>
<path d="M4.24372 1.30891C3.45787 2.45345 2.30468 3.96912 0.163574 3.84368V0.15918H4.9685C4.9685 0.15918 4.68739 0.664403 4.24372 1.30891Z" fill="#0D72BA"/>
<path d="M0.163574 4.12138V4.9043H5.09244V0.218872C5.09244 0.218872 3.51534 4.4207 0.163574 4.12138Z" fill="#E1A435"/>
<path d="M1.83572 1.41791C1.17022 1.41791 0.631348 1.93438 0.631348 2.57456C0.631348 3.10227 0.998677 3.54607 1.50252 3.68536C2.10246 3.49849 2.60002 3.16802 3.02303 2.78218C3.03561 2.71557 3.04189 2.6455 3.04189 2.57456C3.04189 1.93438 2.50302 1.41791 1.83572 1.41791Z" fill="#1182BD"/>
<path d="M2.742 2.57458C2.742 3.05385 2.33695 3.44315 1.8358 3.44315C1.33645 3.44315 0.931396 3.05385 0.931396 2.57458C0.931396 2.09618 1.33645 1.70947 1.8358 1.70947C2.33695 1.70947 2.742 2.09618 2.742 2.57458Z" fill="#5795C4"/>
<path d="M2.44021 2.5746C2.44021 2.89469 2.16808 3.15076 1.83578 3.15076C1.50438 3.15076 1.23584 2.89469 1.23584 2.5746C1.23584 2.25624 1.50438 1.9967 1.83578 1.9967C2.16808 1.9967 2.44021 2.25624 2.44021 2.5746Z" fill="#86ADD3"/>
<path d="M2.13845 2.57458C2.13845 2.73549 2.00193 2.86353 1.83578 2.86353C1.66963 2.86353 1.53491 2.73549 1.53491 2.57458C1.53491 2.41454 1.66963 2.2865 1.83578 2.2865C2.00193 2.2865 2.13845 2.41454 2.13845 2.57458Z" fill="#B9CCDC"/>
<path d="M8.26998 1.12638H8.95165C9.18157 1.12638 9.34682 1.16531 9.44382 1.2423C9.53453 1.3193 9.58213 1.4257 9.58213 1.56153C9.58213 1.70946 9.53453 1.82106 9.44382 1.89805C9.34682 1.97678 9.17798 2.01311 8.93818 2.01311H8.26998V1.12638ZM6.71265 4.87057H9.37736C9.48872 4.87057 9.72223 4.8498 10.0662 4.80741C10.3294 4.77627 10.5243 4.72609 10.6545 4.65342C10.8637 4.54096 11.0281 4.38524 11.1466 4.19146C11.2688 4.00027 11.3281 3.77793 11.3281 3.5357C11.3281 3.23465 11.2436 2.98636 11.0739 2.78825C10.906 2.59101 10.6401 2.45086 10.2818 2.36954C10.5171 2.296 10.6958 2.18786 10.8197 2.0581C11.0038 1.85826 11.0981 1.62035 11.0981 1.34092C11.0981 1.01045 10.9697 0.731022 10.7102 0.507824C10.4533 0.283761 10.0824 0.168701 9.60189 0.168701H6.71265V4.87057ZM8.26998 2.91023H9.05044C9.32437 2.91023 9.51118 2.95349 9.62075 3.0374C9.72852 3.11959 9.78331 3.23032 9.78331 3.36874C9.78331 3.51754 9.72762 3.63606 9.61985 3.7243C9.51118 3.8134 9.32257 3.85579 9.05583 3.85579H8.26998" fill="#0D72BA"/>
<path d="M13.3137 1.11773H13.9864C14.2666 1.11773 14.457 1.15839 14.5594 1.24057C14.6609 1.3193 14.7103 1.43695 14.7103 1.58661C14.7103 1.69129 14.6789 1.7804 14.6151 1.86085C14.5513 1.94044 14.4669 1.98975 14.3672 2.00879C14.1642 2.05291 14.0286 2.07281 13.9604 2.07281H13.3137V1.11773ZM13.3137 4.87057V2.96214H13.4475C13.5894 2.96214 13.7152 2.99588 13.8256 3.06941C13.9038 3.12564 13.9972 3.24589 14.1041 3.43276L14.924 4.87057H16.67L15.9183 3.50889C15.8796 3.44054 15.8087 3.34365 15.7027 3.21648C15.5958 3.08844 15.5141 3.00539 15.4557 2.96733C15.3713 2.90937 15.2393 2.8514 15.0552 2.79431C15.286 2.74586 15.4683 2.68011 15.5994 2.60917C15.8078 2.49238 15.9721 2.33753 16.0898 2.1498C16.2092 1.95861 16.2685 1.73541 16.2685 1.47415C16.2685 1.17396 16.1913 0.923941 16.035 0.713719C15.8814 0.505228 15.6776 0.36162 15.4252 0.287221C15.1728 0.213687 14.8064 0.168701 14.3313 0.168701H11.7582V4.87057" fill="#0D72BA"/>
<path d="M18.7033 3.08066L19.252 1.3911L19.7945 3.08066H18.7033ZM20.3702 4.87057H21.9877L20.1223 0.168701H18.4204L16.5442 4.87057H18.1213L18.3754 4.09543H20.1196" fill="#0D72BA"/>
<path d="M25.3539 2.93445L26.7127 3.30558C26.622 3.6499 26.4765 3.94057 26.2799 4.17242C26.085 4.40341 25.8416 4.57643 25.5515 4.69495C25.2614 4.81174 24.8959 4.87057 24.4459 4.87057C23.9025 4.87057 23.458 4.80049 23.114 4.65688C22.7709 4.51241 22.4709 4.26066 22.224 3.89991C21.9734 3.5383 21.8503 3.07547 21.8503 2.51142C21.8503 1.75877 22.0668 1.18088 22.5087 0.776873C22.9478 0.372002 23.5675 0.168701 24.3714 0.168701C25.0036 0.168701 25.4949 0.287221 25.8541 0.518205C26.2152 0.751784 26.4819 1.10734 26.6589 1.58575L25.291 1.86777C25.2416 1.72763 25.194 1.62381 25.1401 1.56066C25.0557 1.44993 24.9488 1.36947 24.8249 1.30978C24.6992 1.25182 24.56 1.22154 24.4082 1.22154C24.0597 1.22154 23.7921 1.34957 23.6062 1.60478C23.4643 1.79511 23.3942 2.0927 23.3942 2.49844C23.3942 3.00107 23.4795 3.34711 23.6466 3.53397C23.8136 3.71997 24.0516 3.8134 24.3561 3.8134C24.6516 3.8134 24.8734 3.73727 25.0252 3.58934C25.1779 3.43968 25.2856 3.2208 25.3539 2.93445Z" fill="#0D72BA"/>
<path d="M29.9325 1.12638H30.6133C30.8459 1.12638 31.0103 1.16531 31.1055 1.2423C31.1989 1.3193 31.2447 1.4257 31.2447 1.56153C31.2447 1.70946 31.1989 1.82106 31.1055 1.89805C31.0103 1.97678 30.8441 2.01311 30.6034 2.01311H29.9325V1.12638ZM28.3761 4.87057H31.0408C31.1558 4.87057 31.3866 4.8498 31.7324 4.80741C31.9928 4.77627 32.1886 4.72609 32.3197 4.65342C32.5254 4.54096 32.6907 4.38524 32.8137 4.19146C32.9322 4.00027 32.9924 3.77793 32.9924 3.5357C32.9924 3.23465 32.9071 2.98636 32.74 2.78825C32.5685 2.59101 32.3063 2.45086 31.9461 2.36954C32.1796 2.296 32.3601 2.18786 32.4841 2.0581C32.6673 1.85826 32.7598 1.62035 32.7598 1.34092C32.7598 1.01045 32.6323 0.731022 32.3727 0.507824C32.1132 0.283761 31.7467 0.168701 31.2653 0.168701H28.3761V4.87057ZM29.9325 2.91023H30.7139C30.9878 2.91023 31.1764 2.95349 31.2869 3.0374C31.3947 3.11959 31.445 3.23032 31.445 3.36874C31.445 3.51754 31.3911 3.63606 31.2833 3.7243C31.1746 3.8134 30.9869 3.85579 30.7211 3.85579H29.9325" fill="#0D72BA"/>
<path d="M34.9233 3.08066L35.4729 1.3911L36.0136 3.08066H34.9233ZM36.5893 4.87057H38.2086L36.345 0.168701H34.6413L32.7678 4.87057H34.344L34.5964 4.09543H36.3405" fill="#0D72BA"/>
<path d="M38.2913 0.168701H39.7291L41.617 2.77095V0.168701H43.0764V4.87057H41.617L39.7417 2.28649V4.87057H38.2913" fill="#0D72BA"/>
<mask id="mask0_2164_163" style="mask-type:luminance" maskUnits="userSpaceOnUse" x="43" y="0" width="7" height="5">
<path d="M43.6844 0H49.0004V4.87229H43.6844V0Z" fill="white"/>
</mask>
<g mask="url(#mask0_2164_163)">
<path d="M43.696 0.168701H45.2417V1.9465L46.8592 0.168701H48.915L47.0891 1.94044L48.9994 4.87057H47.0963L46.0437 2.95176L45.2417 3.73295V4.87057H43.696" fill="#0D72BA"/>
</g>
<mask id="mask1_2164_163" style="mask-type:luminance" maskUnits="userSpaceOnUse" x="27" y="6" width="22" height="7">
<path d="M27.8201 6.86554H48.9725V12.0986H27.8201V6.86554Z" fill="white"/>
</mask>
<g mask="url(#mask1_2164_163)">
<path d="M43.7158 8.293L43.7203 8.2878L43.7238 8.28261L43.7158 8.293ZM45.5901 9.736C45.6081 9.7732 45.6189 9.80694 45.6189 9.83635C45.6189 9.86576 45.6117 9.89258 45.5982 9.9168C45.494 10.1115 45.0432 10.249 44.7782 10.294C44.6507 10.2897 44.6211 10.2187 44.6139 10.1729L44.6776 9.1062C45.0701 9.25154 45.53 9.6789 45.5901 9.736ZM43.5137 10.1616C43.1751 10.0076 42.7889 9.73946 42.7709 9.72735C42.7242 9.6962 42.6991 9.66506 42.691 9.62699L42.6874 9.59498C42.6874 9.53789 42.7153 9.46349 42.762 9.39428V9.39341L42.7638 9.38822C42.9793 9.04131 43.4266 8.7515 43.6215 8.63558C43.537 9.13302 43.5182 9.83981 43.5137 10.1616ZM48.8889 8.10786C48.4677 7.83708 48.121 8.01789 47.9944 8.14939L47.9692 8.18832L47.9639 8.20129C47.4582 7.93571 46.6131 8.05076 46.6041 8.05249C46.1667 8.10094 45.9548 8.16409 45.8901 8.18659C45.2713 7.96166 44.8357 8.17794 44.6408 8.31635C44.4612 8.13987 44.278 8.05249 44.0948 8.06288C43.8577 8.07845 43.7319 8.24714 43.7203 8.26358L43.6996 8.29559L43.6969 8.30338C43.2586 7.93657 42.5572 8.06374 42.2123 8.1615L42.2249 8.13208L42.2114 8.14939L42.2339 8.11478C42.2743 7.99799 42.497 7.43048 43.0009 7.27563C43.3826 7.15711 43.8505 7.30072 44.3893 7.7004C44.419 7.72462 44.4585 7.73587 44.4998 7.73067C44.5411 7.72548 44.5789 7.70472 44.604 7.67358C44.6552 7.60869 44.6417 7.51613 44.5762 7.46682C43.9502 7.00398 43.3879 6.84567 42.903 6.99533C42.1953 7.2142 41.9465 8.00491 41.9429 8.01962C41.8728 8.15977 41.8073 8.402 41.7471 8.73507C41.536 8.31635 41.3411 8.09489 41.1382 8.0672C41.0223 8.05249 40.9496 8.09575 40.9091 8.13295L40.8876 8.13728L40.8741 8.14074L40.8642 8.14852C40.7062 8.2705 40.5786 8.91068 40.4807 10.0414C40.3927 9.9912 40.2841 9.92892 40.1431 9.85625C40.2409 9.69447 40.3182 9.50155 40.3694 9.26192C40.3954 9.1036 40.487 8.33106 39.8691 8.13728L39.8646 8.13555L39.8601 8.13468C39.7883 8.12257 39.4174 8.0698 39.1165 8.27223C38.9162 8.40805 38.7932 8.62347 38.7519 8.91241V8.9202C38.751 8.97124 38.7591 9.22991 38.9441 9.38736C39.0644 9.48771 39.2216 9.52231 39.4093 9.49204C39.4919 9.48165 39.5503 9.40466 39.5377 9.32507C39.5323 9.28614 39.5108 9.25067 39.4784 9.22818C39.4452 9.20482 39.4021 9.19444 39.3617 9.20222C39.2952 9.21174 39.2027 9.21434 39.1479 9.16675C39.0626 9.09409 39.059 8.9548 39.0581 8.94096C39.086 8.74458 39.1641 8.60184 39.2907 8.51533C39.4677 8.39594 39.6931 8.41065 39.7865 8.42276C40.0452 8.50408 40.0838 8.82158 40.0838 9.00411C40.0838 9.07159 40.0784 9.14253 40.0694 9.20482V9.20655C40.0209 9.42802 39.9464 9.61661 39.8485 9.76714L39.853 9.76281L39.7389 9.9021L39.7147 9.93065C39.4551 10.1902 39.1632 10.1729 39.1605 10.1729C38.0199 10.0396 37.9508 8.13468 37.949 8.11651C37.9463 8.03346 37.8762 7.96858 37.7918 7.96944C37.7083 7.97204 37.64 8.03865 37.6418 8.11911C37.6445 8.20994 37.7208 10.3018 39.1255 10.4679H39.1336C39.1812 10.4705 39.6141 10.4748 39.967 10.0976C40.258 10.2499 40.4592 10.3701 40.4843 10.4004C40.5257 10.4497 40.5948 10.4713 40.6532 10.4549C40.7178 10.4341 40.7619 10.3857 40.7646 10.3277C40.8436 9.27403 40.9846 8.45304 41.0618 8.37605L41.0331 8.39075C41.0564 8.38729 41.0744 8.37345 41.0924 8.36134H41.0933C41.104 8.36393 41.2864 8.40027 41.5944 9.11917C41.6088 9.15205 41.6384 9.17541 41.6743 9.19098C41.6258 9.5301 41.5854 9.91334 41.5513 10.3381L41.5486 10.371V10.3822C41.5486 10.4601 41.6106 10.525 41.6905 10.531C41.7758 10.5336 41.8477 10.4739 41.8549 10.3926C41.8549 10.3796 41.9465 9.18838 42.1027 8.50927L42.1126 8.50754C42.1476 8.4937 42.8922 8.22552 43.3583 8.44698C43.1257 8.59232 42.7251 8.87348 42.5033 9.23337C42.5051 9.22991 42.3803 9.39601 42.3803 9.59585C42.3803 9.62007 42.383 9.64603 42.3883 9.6789C42.4126 9.80088 42.4853 9.90037 42.5958 9.96958C42.6982 10.0414 43.229 10.4047 43.6188 10.5241C43.6736 10.5354 43.7238 10.5267 43.7589 10.499C43.7957 10.4739 43.819 10.4298 43.819 10.3822V10.345C43.819 10.198 43.8235 8.89857 43.9816 8.4219C43.9987 8.40459 44.0436 8.36134 44.1172 8.35701C44.1963 8.35442 44.2968 8.41065 44.4064 8.5136C44.392 8.74718 44.3121 10.1089 44.3085 10.1711C44.313 10.3199 44.419 10.5907 44.7845 10.5907H44.7881L44.798 10.5899H44.7998L44.8025 10.589H44.8088C44.9534 10.5648 45.6692 10.4281 45.8712 10.0544C45.909 9.98169 45.926 9.91248 45.926 9.83721C45.926 9.75676 45.9045 9.67544 45.8623 9.59239L45.8344 9.55259C45.8299 9.54827 45.221 8.95048 44.6974 8.79995L44.7073 8.63817L44.7414 8.62001C44.7486 8.61222 45.1276 8.19005 45.8335 8.47726C45.8712 8.4911 45.9126 8.49197 45.9476 8.48072L45.9593 8.47726L45.9611 8.47467C45.9781 8.46948 46.1838 8.39594 46.6454 8.3449C46.6822 8.33971 47.5013 8.24195 47.8678 8.48937C47.83 8.6598 47.8103 8.84493 47.7968 9.01363C47.707 8.94269 47.6118 8.89684 47.5103 8.89944C47.3684 8.90636 47.2355 8.98681 47.1115 9.13302C47.0541 9.04131 46.9885 8.96778 46.9077 8.92539C46.7568 8.84407 46.6131 8.86224 46.5448 8.87867L46.5305 8.88127H46.5296V8.88473C46.1604 8.95394 46.0374 9.55 46.0015 9.8104C45.9449 10.3511 46.323 10.4065 46.3383 10.4082C46.6903 10.4307 46.8699 10.1962 46.9158 10.0682C46.9418 9.9912 46.9005 9.90729 46.8232 9.88047C46.7397 9.85452 46.6544 9.89431 46.6266 9.96958C46.623 9.97823 46.5682 10.1218 46.3751 10.1149C46.3634 10.1089 46.2826 10.0717 46.3068 9.84414C46.3445 9.53789 46.4748 9.18319 46.5924 9.16935L46.6185 9.16416C46.6185 9.16416 46.6894 9.14513 46.7622 9.18492C46.8421 9.22991 46.9023 9.33026 46.9373 9.47906C46.9508 9.53962 47.0038 9.58547 47.0684 9.59239C47.1376 9.59931 47.1978 9.56644 47.2265 9.50934C47.2741 9.40379 47.4133 9.20049 47.5238 9.1953C47.5884 9.19271 47.6729 9.27316 47.7564 9.41764L47.7788 9.44099C47.7752 9.83894 47.7986 10.1668 47.7995 10.1815C47.8058 10.2628 47.8785 10.3243 47.9621 10.3182C48.0465 10.3113 48.1058 10.249 48.1058 10.1703L48.0977 10.1374L48.1049 10.1634L48.104 10.1495C48.0923 9.94622 48.086 9.73254 48.086 9.5301C48.086 8.95394 48.139 8.54215 48.2396 8.33452C48.2917 8.2878 48.4542 8.18313 48.7138 8.35096C48.7434 8.37345 48.7865 8.38124 48.8278 8.37345C48.8701 8.36566 48.906 8.34317 48.9266 8.3103C48.9715 8.24628 48.9563 8.15717 48.8889 8.10786ZM34.1158 9.33805C33.8715 9.06208 33.5455 9.02574 33.3901 9.0517C33.2895 9.06813 33.2132 9.12523 33.1512 9.20049L33.1368 9.17973L33.1404 9.18579L33.1198 9.16156L33.1234 9.16416L33.1198 9.15983L33.1153 9.15551C32.9096 8.97557 33.0012 8.65115 33.0165 8.60011L33.0174 8.59924L33.0228 8.58194L33.0246 8.57329C33.1279 8.48072 33.5383 8.16323 34.0152 8.47553C34.052 8.61136 34.1257 8.91328 34.1257 9.22558C34.1257 9.26538 34.1194 9.29998 34.1158 9.33805ZM35.7701 8.07066L35.7647 8.0698H35.7602C35.6731 8.0698 35.5968 8.10094 35.5402 8.15717C35.4477 8.24887 35.4396 8.3847 35.4396 8.4392V8.51187C35.3561 8.41065 35.2627 8.32241 35.1513 8.26445C34.7633 8.07066 34.3439 8.20043 34.264 8.22984L34.2352 8.26185C33.5724 7.78345 32.9761 8.22292 32.827 8.3475C32.6923 8.28261 32.421 8.1589 32.3977 8.15458L32.4202 8.16323C32.2414 8.05163 32.1175 8.07585 32.0447 8.11478C31.9118 8.19005 31.8894 8.3475 31.8849 8.42449C31.7376 8.20821 31.5939 8.08796 31.4493 8.0672C31.3262 8.05076 31.2526 8.10094 31.2194 8.13295L31.1987 8.13728L31.1861 8.14074L31.1763 8.14852C30.9697 8.30943 30.8484 9.36227 30.791 10.0414C30.6877 9.97996 30.5718 9.91594 30.4551 9.85625C30.5548 9.68755 30.6329 9.49117 30.6796 9.26192C30.6877 9.22299 30.8395 8.3449 30.1794 8.13728L30.1749 8.13468H30.1695C30.0671 8.11738 29.7177 8.07672 29.4276 8.27223C29.2282 8.40805 29.1061 8.62174 29.063 8.91241C29.063 8.9176 29.0495 9.21174 29.2552 9.38736C29.3746 9.48771 29.5309 9.52231 29.7222 9.49204C29.7617 9.48685 29.7977 9.46522 29.821 9.43407C29.8453 9.4012 29.8542 9.36054 29.8461 9.32074C29.8408 9.28527 29.8201 9.25067 29.7869 9.22818C29.7527 9.20482 29.7114 9.19444 29.6701 9.20222C29.6055 9.21174 29.5147 9.21434 29.46 9.16589C29.398 9.11398 29.3728 9.01709 29.3701 8.93923C29.3998 8.74372 29.477 8.60011 29.6037 8.51533C29.7779 8.39594 30.0024 8.41065 30.0949 8.42276C30.3419 8.50062 30.394 8.78178 30.394 9.00411C30.394 9.07159 30.3877 9.14253 30.3778 9.20482V9.20568C30.3329 9.42369 30.2593 9.61229 30.1614 9.76714L30.0509 9.9021L30.0348 9.92113C29.7716 10.1919 29.4743 10.1729 29.4716 10.1729C28.331 10.0396 28.2619 8.13468 28.261 8.11651C28.2574 8.03173 28.1882 7.96858 28.1038 7.96944C28.0607 7.97031 28.023 7.98675 27.9942 8.01616C27.9664 8.04384 27.952 8.08191 27.9529 8.1217C27.9556 8.20994 28.0194 10.3009 29.4366 10.4679H29.4438C29.5228 10.4713 29.9351 10.4661 30.2781 10.0976C30.5646 10.2455 30.7694 10.3693 30.7973 10.4004C30.835 10.4497 30.9068 10.4739 30.9652 10.4549C31.0281 10.435 31.0712 10.3883 31.0766 10.3286C31.1547 9.27403 31.2948 8.45391 31.3729 8.37605L31.4035 8.36134C31.4143 8.36307 31.5831 8.40113 31.8669 9.03093L31.8256 10.4419C31.8247 10.5241 31.8921 10.5907 31.9765 10.5933C32.0151 10.5942 32.0555 10.5795 32.0852 10.5527C32.1148 10.525 32.1319 10.4886 32.1328 10.4497L32.1687 9.12696L32.1741 8.98854L32.1902 8.4591C32.1884 8.42795 32.1938 8.402 32.2001 8.38383C32.2145 8.38902 32.2351 8.39854 32.2666 8.41757L32.2729 8.4219C32.36 8.4591 32.5701 8.55339 32.7022 8.61741C32.6887 8.68835 32.6761 8.75842 32.6761 8.82504C32.6761 9.04304 32.7516 9.22991 32.8953 9.36227L32.8881 9.35362C32.9258 9.40379 32.9833 9.48771 33.0327 9.57422L33.0812 9.67111C33.1009 9.71264 33.1036 9.73686 33.1054 9.74551C33.1063 9.81645 33.0821 9.94189 33.021 9.97736C32.9599 10.012 32.827 9.97736 32.6626 9.88047C32.589 9.83894 32.4974 9.85971 32.4525 9.92805C32.4067 9.99985 32.4291 10.0907 32.5037 10.1339C32.7812 10.294 33.0084 10.3269 33.1782 10.2317C33.4 10.1071 33.4144 9.81905 33.4117 9.73254V9.72562C33.4063 9.66506 33.3802 9.59239 33.3362 9.50155C33.3452 9.43234 33.3704 9.35362 33.4377 9.34324C33.4431 9.34324 33.77 9.2922 33.9712 9.65208C33.9883 9.68149 34.0152 9.70312 34.0457 9.71523C34.0395 9.74119 34.0341 9.76801 34.0314 9.79482C33.8769 9.8649 33.7664 9.95746 33.7134 10.0751C33.5949 10.3381 33.7682 10.6011 33.77 10.6037L33.7997 10.6348L33.7907 10.6253C33.9254 10.7594 34.0601 10.775 34.149 10.7663C34.3987 10.7395 34.5478 10.4964 34.5496 10.493C34.5693 10.4636 34.5765 10.4246 34.5666 10.3857C34.5586 10.3468 34.5352 10.3139 34.5002 10.294C34.4292 10.249 34.3358 10.2689 34.29 10.3381C34.2568 10.3866 34.1814 10.4653 34.1149 10.4713C34.0871 10.4765 34.0547 10.4584 34.0206 10.4281C34.008 10.4056 33.9775 10.345 33.9775 10.2741C33.9775 10.2455 33.9847 10.2187 33.9954 10.1936C34.0386 10.0993 34.1867 10.0232 34.4023 9.98515C34.4517 9.98428 34.7588 9.98428 34.9115 10.166C35.0166 10.2897 35.0319 10.4817 34.9582 10.7369C34.9555 10.7421 34.7301 11.2733 33.2545 10.9247C33.2024 10.9117 33.1467 10.9247 33.1081 10.9627C33.0695 10.9982 33.0542 11.0518 33.0677 11.1037C33.0848 11.1608 33.488 12.4481 36.1168 12.0069C36.1994 11.9931 36.2569 11.9161 36.2425 11.8356C36.2264 11.756 36.1464 11.7024 36.0638 11.7145C34.4544 11.9861 33.7871 11.5692 33.5248 11.2768C34.9492 11.519 35.225 10.8996 35.2519 10.8269C35.3552 10.467 35.3202 10.1824 35.1486 9.97996C34.8954 9.68063 34.4571 9.68755 34.3718 9.69188H34.3691L34.3664 9.69447C34.4885 9.27749 34.4059 8.78092 34.3385 8.50927L34.3736 8.50495L34.3637 8.50927H34.3664L34.3736 8.50754C34.4328 8.48591 34.7445 8.39075 35.0058 8.52657C35.198 8.62347 35.3309 8.82331 35.401 9.11917L35.436 9.16675L35.4279 10.4921C35.4279 10.5717 35.4944 10.6383 35.5779 10.6418C35.6677 10.6418 35.736 10.576 35.736 10.4921L35.7468 8.4366C35.745 8.41411 35.7522 8.38124 35.7602 8.36653C35.9776 8.40373 36.2318 8.45564 36.3153 8.49976C36.3485 8.51706 36.3898 8.52225 36.4275 8.51187C36.4671 8.50062 36.5021 8.47467 36.5227 8.44006C36.5614 8.36393 36.5326 8.27569 36.459 8.23849C36.2749 8.14506 35.7899 8.07412 35.7701 8.07066Z" fill="#111617"/>
</g>
</svg>
