<svg width="30" height="20" viewBox="0 0 30 20" fill="none" xmlns="http://www.w3.org/2000/svg">
<path d="M1.69443 19.7662C0.889462 19.7662 0.234375 19.1116 0.234375 18.3062V1.69365C0.234375 0.888684 0.889462 0.233597 1.69443 0.233597H28.1902C28.9956 0.233597 29.6503 0.888684 29.6503 1.69365V18.3062C29.6503 19.1116 28.9956 19.7662 28.1902 19.7662H1.69443Z" fill="white"/>
<path d="M28.1893 0.466919C28.8659 0.466919 29.4159 1.01695 29.4159 1.69351V18.3065C29.4159 18.9831 28.8659 19.5331 28.1893 19.5331H1.69351C1.01695 19.5331 0.466919 18.9826 0.466919 18.3065V1.69351C0.466919 1.01695 1.01695 0.466919 1.69351 0.466919H28.1893ZM28.1893 0H1.69351C0.762012 0 0 0.762011 0 1.69351V18.3065C0 19.238 0.762012 20 1.69351 20H28.1893C29.1208 20 29.8828 19.238 29.8828 18.3065V1.69351C29.8828 0.762011 29.1208 0 28.1893 0Z" fill="#798A97"/>
<path d="M0 7.14308V2.85737H30V7.14308H0Z" fill="#09223C"/>
<path d="M3.31738 11.3297H13.9715V12.2635H3.31738V11.3297Z" fill="#646492"/>
<path d="M3.31738 13.96H9.73145V14.8938H3.31738V13.96Z" fill="#646492"/>
<path d="M19.7576 17.0228C21.5168 17.0228 22.9429 15.5967 22.9429 13.8375C22.9429 12.0782 21.5168 10.6521 19.7576 10.6521C17.9984 10.6521 16.5723 12.0782 16.5723 13.8375C16.5723 15.5967 17.9984 17.0228 19.7576 17.0228Z" fill="#646492"/>
<path d="M24.4473 13.8378C24.4471 14.2875 24.0826 14.6521 23.6328 14.6522C23.211 14.6522 22.864 14.3316 22.8223 13.9208L22.8184 13.8378C22.8184 13.3878 23.1829 13.0233 23.6328 13.0233L23.7158 13.0272C24.1266 13.0689 24.4473 13.416 24.4473 13.8378Z" fill="#D3DFE8" stroke="#E6DFF0" stroke-width="8"/>
</svg>
