<svg width="30" height="22" viewBox="0 0 30 22" fill="none" xmlns="http://www.w3.org/2000/svg">
<path d="M28.2548 21.6552H1.64992C0.721839 21.6552 0 20.9333 0 20.0053V1.64992C0 0.721839 0.721839 0 1.64992 0H28.2548C29.1829 0 29.9048 0.721839 29.9048 1.64992V20.0053C29.9048 20.9333 29.1829 21.6552 28.2548 21.6552Z" fill="#D1D4D2"/>
<path d="M29.9048 2.57797H0V6.70277H29.9048V2.57797Z" fill="#A5A5A4"/>
<path d="M7.73463 13.5087H3.60984C3.30048 13.5087 3.09424 13.3025 3.09424 12.9931C3.09424 12.6837 3.30048 12.4775 3.60984 12.4775H7.73463C8.04399 12.4775 8.25023 12.6837 8.25023 12.9931C8.25023 13.3025 8.04399 13.5087 7.73463 13.5087Z" fill="white"/>
<path d="M13.9216 13.5087H9.79685C9.48749 13.5087 9.28125 13.3025 9.28125 12.9931C9.28125 12.6837 9.48749 12.4775 9.79685 12.4775H13.9216C14.231 12.4775 14.4372 12.6837 14.4372 12.9931C14.4372 13.3025 14.231 13.5087 13.9216 13.5087Z" fill="white"/>
<path d="M4.12544 16.0867H3.60984C3.30048 16.0867 3.09424 15.8804 3.09424 15.5711C3.09424 15.2617 3.30048 15.0555 3.60984 15.0555H4.12544C4.4348 15.0555 4.64104 15.2617 4.64104 15.5711C4.64104 15.8804 4.4348 16.0867 4.12544 16.0867Z" fill="white"/>
<path d="M7.21916 16.0867H6.18796C5.8786 16.0867 5.67236 15.8804 5.67236 15.5711C5.67236 15.2617 5.8786 15.0555 6.18796 15.0555H7.21916C7.52852 15.0555 7.73476 15.2617 7.73476 15.5711C7.73476 15.8804 7.52852 16.0867 7.21916 16.0867Z" fill="white"/>
<path d="M9.79682 16.0867H9.28122C8.97186 16.0867 8.76562 15.8804 8.76562 15.5711C8.76562 15.2617 8.97186 15.0555 9.28122 15.0555H9.79682C10.1062 15.0555 10.3124 15.2617 10.3124 15.5711C10.3124 15.8804 10.1062 16.0867 9.79682 16.0867Z" fill="white"/>
<path d="M12.8905 16.0867H11.8593C11.55 16.0867 11.3438 15.8804 11.3438 15.5711C11.3438 15.2617 11.55 15.0555 11.8593 15.0555H12.8905C13.1999 15.0555 13.4061 15.2617 13.4061 15.5711C13.4061 15.8804 13.1999 16.0867 12.8905 16.0867Z" fill="white"/>
<path d="M14.9526 16.0867C14.7979 16.0867 14.6948 16.0351 14.5917 15.932C14.4886 15.8289 14.437 15.7258 14.437 15.5711C14.437 15.4164 14.4886 15.3133 14.5917 15.2102C14.7979 15.0039 15.1073 15.0039 15.3135 15.2102C15.4167 15.3133 15.4682 15.4164 15.4682 15.5711C15.4682 15.7258 15.4167 15.8289 15.3135 15.932C15.2104 16.0351 15.1073 16.0867 14.9526 16.0867Z" fill="white"/>
<path d="M24.2333 16.0867H23.7177C23.4084 16.0867 23.2021 15.8804 23.2021 15.5711C23.2021 15.2617 23.4084 15.0555 23.7177 15.0555H24.2333C24.5427 15.0555 24.7489 15.2617 24.7489 15.5711C24.7489 15.8804 24.5427 16.0867 24.2333 16.0867Z" fill="white"/>
<path d="M26.2959 16.0867C26.1412 16.0867 26.0381 16.0351 25.935 15.932C25.8318 15.8289 25.7803 15.7258 25.7803 15.5711C25.7803 15.4164 25.8318 15.3133 25.935 15.2102C26.1412 15.0039 26.4506 15.0039 26.6568 15.2102C26.7599 15.3133 26.8115 15.4164 26.8115 15.5711C26.8115 15.7258 26.7599 15.8289 26.6568 15.932C26.5537 16.0351 26.4506 16.0867 26.2959 16.0867Z" fill="white"/>
<path d="M19.5936 16.0867H17.0156C16.7062 16.0867 16.5 15.8804 16.5 15.5711C16.5 15.2617 16.7062 15.0555 17.0156 15.0555H19.5936C19.903 15.0555 20.1092 15.2617 20.1092 15.5711C20.1092 15.8804 19.903 16.0867 19.5936 16.0867Z" fill="white"/>
<path d="M21.6552 16.0867C21.5006 16.0867 21.3974 16.0351 21.2943 15.932C21.1912 15.8289 21.1396 15.7258 21.1396 15.5711C21.1396 15.4164 21.1912 15.3133 21.2943 15.2102C21.5006 15.0039 21.8099 15.0039 22.0162 15.2102C22.1193 15.3133 22.1708 15.4164 22.1708 15.5711C22.1708 15.7258 22.1193 15.8289 22.0162 15.932C21.913 16.0351 21.8099 16.0867 21.6552 16.0867Z" fill="white"/>
<path d="M20.5731 8.198H3.6614C3.35204 8.198 3.09424 8.4558 3.09424 8.76516V10.2604C3.09424 10.5698 3.35204 10.8276 3.6614 10.8276H20.5731C20.8824 10.8276 21.1402 10.5698 21.1402 10.2604V8.76516C21.1402 8.4558 20.8824 8.198 20.5731 8.198Z" fill="white"/>
<path d="M21.0885 11.4463H15.5201C15.056 11.4463 14.6436 11.0854 14.6436 10.5698V8.24957C14.6436 7.78553 15.0045 7.37305 15.5201 7.37305H21.037C21.501 7.37305 21.9135 7.73397 21.9135 8.24957V10.5698C21.9135 11.0854 21.5526 11.4463 21.0885 11.4463Z" stroke="#FF0000" stroke-width="0.5" stroke-miterlimit="10"/>
<path d="M16.551 8.71359V10.2088H16.2417V8.91983H15.9839V8.71359H16.551Z" fill="#3A3A3A"/>
<path d="M17.9432 9.95105V10.2088H16.8604V10.0542L17.4792 9.48701C17.5823 9.38389 17.6338 9.28077 17.6338 9.17765C17.6338 9.07453 17.5307 8.97141 17.3245 8.97141C17.2214 8.97141 17.0667 9.02297 16.9636 9.12609L16.7573 8.91985C16.8604 8.76517 17.1182 8.66205 17.3245 8.66205C17.6854 8.66205 17.8916 8.81673 17.8916 9.07453C17.8916 9.17765 17.8401 9.38389 17.6338 9.53857L17.2729 9.89949H17.9432V9.95105Z" fill="#3A3A3A"/>
<path d="M19.1805 9.74484C19.1805 10.0026 19.0258 10.2089 18.5618 10.2089C18.3555 10.2089 18.1493 10.1573 17.9946 10.0542L18.0977 9.84796C18.2009 9.95108 18.3555 9.95108 18.5102 9.95108C18.7165 9.95108 18.8196 9.84796 18.8196 9.74484C18.8196 9.64172 18.7165 9.5386 18.4587 9.5386H18.3555V9.38392L18.7165 9.023H18.0977V8.7652H19.1289V8.91988L18.768 9.33236C19.0258 9.38392 19.1805 9.5386 19.1805 9.74484Z" fill="#3A3A3A"/>
<path d="M20.676 9.89947H20.4182V10.2604H20.1604V9.89947H19.3354V9.69323L20.0573 8.71359H20.3666L19.6964 9.64167H20.1604V9.33231H20.4182V9.64167H20.676V9.89947Z" fill="#3A3A3A"/>
</svg>
