<svg width="25" height="29" viewBox="0 0 25 29" fill="none" xmlns="http://www.w3.org/2000/svg">
<path d="M1.73944 26.7878C1.80229 26.7177 1.84684 26.6631 1.87123 26.6156C1.89608 26.5666 1.90874 26.5233 1.90874 26.4852C1.90874 26.4283 1.88623 26.3751 1.83934 26.3332C1.76993 26.2697 1.67472 26.2259 1.54857 26.1939C1.45665 26.1761 1.35769 26.1648 1.23951 26.1648C1.09413 26.1648 0.93702 26.1497 0.76725 26.1201C0.749898 26.1196 0.654226 26.0989 0.48211 26.0688C0.309526 26.0339 0.193688 25.9949 0.135066 25.9521C0.0764436 25.9088 0.0351735 25.8471 0.00750367 25.7685C0.0051588 25.7445 0 25.7219 0 25.6956C0 25.5554 0.117714 25.41 0.355486 25.2598C0.544016 25.1403 0.727386 25.0594 0.907005 25.0151C1.02284 24.9813 1.12461 24.9582 1.21747 24.9422C1.3652 24.9102 1.48807 24.8998 1.59218 24.8998C1.71975 24.8998 1.81964 24.9215 1.90265 24.9554C1.98425 24.9911 2.04147 25.0528 2.07429 25.1436C1.99457 25.1822 1.92469 25.21 1.86232 25.2274C1.79947 25.2391 1.72631 25.2452 1.63955 25.2452L1.73944 25.1116C1.63392 25.0834 1.52606 25.0674 1.41538 25.0674C1.28875 25.0674 1.16729 25.0862 1.04254 25.121C0.916854 25.1572 0.784602 25.21 0.641094 25.2796C0.538388 25.3281 0.44084 25.3897 0.363928 25.4532C0.262159 25.5389 0.21151 25.6156 0.21151 25.6876C0.21151 25.7276 0.227455 25.7662 0.259814 25.8048C0.290298 25.8377 0.343293 25.8735 0.40895 25.9017C0.554333 25.9676 0.740987 26.0062 0.967035 26.0231C1.1959 26.0396 1.40553 26.0537 1.60813 26.0678C1.73944 26.0857 1.83934 26.1078 1.90265 26.1342C2.00489 26.1761 2.07429 26.2443 2.10665 26.3332C2.1226 26.3671 2.12776 26.4113 2.12776 26.4565C2.12776 26.6062 2.05366 26.7619 1.89608 26.928C1.75633 27.0702 1.60813 27.1784 1.44258 27.2523C1.34128 27.297 1.24655 27.3389 1.15087 27.3845C1.028 27.4349 0.927172 27.4655 0.841817 27.4805C0.814617 27.4815 0.775222 27.4862 0.7302 27.496C0.686116 27.504 0.650474 27.504 0.628432 27.504C0.590445 27.504 0.559023 27.504 0.544954 27.496C0.529946 27.496 0.504621 27.489 0.473669 27.4805C0.411295 27.4546 0.370025 27.4349 0.352203 27.409C0.331099 27.3845 0.320313 27.345 0.309526 27.2857C0.359238 27.3111 0.411295 27.3332 0.469917 27.345C0.529946 27.3572 0.5881 27.3643 0.646253 27.3643C0.8315 27.3643 1.02988 27.305 1.24326 27.184C1.42898 27.0833 1.59359 26.952 1.73944 26.7878Z" fill="#221F1F"/>
<path fill-rule="evenodd" clip-rule="evenodd" d="M2.83782 26.8584C2.84204 26.881 2.86736 26.9601 2.91379 27.0979C2.9485 27.1925 2.96772 27.2777 2.96772 27.3469C2.84391 27.3299 2.74543 27.2528 2.67883 27.1158C2.61552 26.9793 2.58222 26.8264 2.58222 26.6655C2.58222 26.5403 2.59958 26.4391 2.63287 26.3657C2.69806 26.4203 2.75059 26.5158 2.78623 26.6528C2.80733 26.7459 2.8275 26.8146 2.83782 26.8584ZM2.86736 26.0034C2.80593 26.0034 2.72573 26.0132 2.63053 26.0339C2.53486 26.0608 2.46545 26.0688 2.41667 26.0688C2.39557 26.0688 2.37681 26.0678 2.36743 26.0678C2.42043 25.9205 2.50344 25.8509 2.62068 25.8509C2.71729 25.8509 2.79561 25.9017 2.86736 26.0034Z" fill="#221F1F"/>
<path d="M3.49669 27.3789C3.424 27.3469 3.37757 27.2782 3.34193 27.1761C3.33067 27.1342 3.31613 27.049 3.30159 26.9238C3.25329 26.7276 3.21108 26.5286 3.16653 26.3333C3.16137 26.2937 3.15574 26.2556 3.15293 26.217C3.14636 26.1761 3.14636 26.154 3.14636 26.1497C3.14636 26.0839 3.16653 26.0495 3.20405 26.0495C3.21718 26.0495 3.2411 26.0608 3.2697 26.0735C3.30159 26.0857 3.32833 26.1417 3.35506 26.2387C3.37757 26.3083 3.39023 26.385 3.3968 26.4603C3.41087 26.6024 3.424 26.7422 3.44182 26.8782C3.47652 27.0429 3.54124 27.1558 3.63222 27.2198C3.69178 27.1116 3.75088 27.0038 3.81513 26.8923C3.87656 26.7751 3.92862 26.6669 3.96239 26.562C3.99193 26.489 4.01866 26.4354 4.0468 26.4057C4.08057 26.3709 4.11105 26.353 4.14482 26.353C4.20203 26.353 4.26019 26.3944 4.32444 26.4787C4.37556 26.5403 4.4173 26.6255 4.45997 26.7234C4.49468 26.8029 4.52704 26.865 4.56455 26.9022C4.59879 26.9375 4.63349 26.953 4.67242 26.953C4.73386 26.953 4.83469 26.8749 4.97538 26.7078C5.11561 26.5403 5.23519 26.4566 5.32336 26.4566C5.39418 26.4566 5.45937 26.4933 5.5269 26.562C5.57145 26.6095 5.61741 26.6721 5.65915 26.7507C5.71168 26.8613 5.7703 26.9751 5.82517 27.0871C5.84815 27.1262 5.86456 27.1436 5.87441 27.1558C5.88942 27.1662 5.91568 27.1761 5.94992 27.1841C5.98697 27.1958 6.01558 27.1972 6.03434 27.1972C6.0545 27.1972 6.07326 27.2311 6.08827 27.2857C6.03433 27.3083 5.97571 27.322 5.9185 27.322C5.81298 27.322 5.72246 27.265 5.64414 27.1464C5.62445 27.1262 5.56442 26.9996 5.45937 26.7878C5.41341 26.6951 5.35901 26.6453 5.30226 26.6453C5.25911 26.6453 5.20706 26.6787 5.15265 26.7422C5.12076 26.7751 5.07809 26.8373 5.02697 26.9238C4.96037 27.0297 4.898 27.1022 4.83985 27.1384C4.77982 27.1784 4.71932 27.1925 4.66445 27.1841C4.54533 27.1728 4.44121 27.0871 4.35117 26.9281C4.2358 26.7163 4.15889 26.5874 4.12981 26.562C4.05243 26.762 3.98115 26.9238 3.92252 27.0462C3.80903 27.2782 3.69788 27.3958 3.57689 27.3958C3.55437 27.3958 3.5267 27.3916 3.49669 27.3789Z" fill="#221F1F"/>
<path d="M7.61952 26.5286C7.69174 26.6095 7.72176 26.6938 7.72176 26.7752C7.72176 26.9192 7.61952 27.0462 7.41879 27.153C7.23308 27.2481 7.04549 27.2985 6.85086 27.2985C6.79787 27.2985 6.75519 27.2947 6.72142 27.2858C6.90714 27.2312 7.04549 27.1841 7.12897 27.1436C7.29639 27.066 7.40191 26.9681 7.45303 26.8585C7.47226 26.8147 7.47929 26.7752 7.47929 26.7422C7.47929 26.6669 7.43521 26.5968 7.35689 26.538C7.28138 26.4853 7.19134 26.4495 7.09145 26.4307C7.02298 26.4156 6.9531 26.4072 6.87572 26.4072C6.75097 26.4072 6.65295 26.4284 6.58495 26.466C6.49913 26.5093 6.4527 26.5869 6.4527 26.6914C6.4527 26.8349 6.50241 27.058 6.60136 27.345C6.70079 27.633 6.75097 27.85 6.75097 27.9916C6.75097 28.0495 6.74769 28.0867 6.74065 28.1112C6.74065 28.1309 6.73455 28.1643 6.72142 28.2043C6.62857 28.1643 6.54227 28.0495 6.46255 27.8429C6.41752 27.7286 6.37063 27.5719 6.32373 27.3789C6.29043 27.2585 6.26276 27.0834 6.24119 26.8542C6.22149 26.6199 6.19898 26.4679 6.18726 26.3926C6.37532 26.3418 6.50006 26.3084 6.56854 26.2938C6.72142 26.2599 6.85321 26.242 6.96248 26.242C7.09426 26.242 7.21244 26.2637 7.32078 26.3084C7.42864 26.3488 7.53041 26.4241 7.61952 26.5286Z" fill="#221F1F"/>
<path d="M8.11565 26.4603C8.11049 26.4057 8.09877 26.2999 8.08611 26.1497C8.06078 25.9347 8.0514 25.7629 8.0514 25.641C8.0514 25.601 8.04296 25.5225 8.02186 25.3978C8.00122 25.2735 7.99231 25.1808 7.99231 25.1201C7.99231 25.0594 7.99794 25.0152 8.00872 24.9813C8.02186 24.9474 8.04718 24.9286 8.08329 24.9154C8.17099 25.3022 8.21414 25.6956 8.21414 26.0989C8.22727 26.2556 8.25353 26.4057 8.28167 26.5535C8.30418 26.6688 8.33842 26.8213 8.3886 27.0038C8.40782 27.0805 8.45144 27.2311 8.51569 27.4448C8.39516 27.4128 8.29668 27.2707 8.22117 27.0241C8.16724 26.8584 8.13582 26.6688 8.11565 26.4603Z" fill="#221F1F"/>
<path fill-rule="evenodd" clip-rule="evenodd" d="M9.37768 26.3926C9.43911 26.353 9.4968 26.3013 9.54932 26.242C9.61357 26.1611 9.64359 26.0886 9.64359 26.0283C9.64359 25.9827 9.62342 25.9375 9.57605 25.9018C9.54604 25.8806 9.50664 25.8679 9.46537 25.8679C9.41988 25.8679 9.36408 25.8806 9.29467 25.9173C9.26512 25.93 9.21588 25.9573 9.146 26.0034C9.05971 26.0566 8.98983 26.1276 8.94059 26.2218C8.89275 26.3126 8.86883 26.4072 8.86883 26.5093C8.86883 26.5535 8.87446 26.5874 8.88478 26.6283C8.9631 26.6114 9.0522 26.5799 9.14975 26.5305C9.22197 26.4966 9.29701 26.4495 9.37768 26.3926ZM9.57605 25.7371C9.64171 25.7559 9.69564 25.7935 9.7402 25.8547C9.78991 25.9088 9.81195 25.9686 9.81195 26.034V26.0679C9.78381 26.25 9.6267 26.4326 9.33547 26.6039C9.20791 26.6759 9.07753 26.7507 8.94621 26.8222C9.02922 26.953 9.14975 27.0542 9.30592 27.1116C9.43114 27.161 9.5859 27.1841 9.76927 27.1841C9.83681 27.1841 9.90434 27.1841 9.96765 27.1784C10.0296 27.1733 10.1013 27.1662 10.1853 27.1559C10.2678 27.1464 10.3541 27.1286 10.4441 27.1022C10.5342 27.0763 10.6238 27.0462 10.71 27.0203C10.748 27.009 10.7898 26.9907 10.8348 26.9662C10.9591 26.8975 11.0308 26.8613 11.0411 26.8585C11.0693 26.8585 11.0951 26.8542 11.1073 26.85C11.1199 26.8462 11.1199 26.8349 11.1101 26.8222C11.1476 26.8147 11.1692 26.8147 11.1781 26.8147C11.1762 26.8166 11.1743 26.8222 11.1743 26.8222C11.0219 26.9239 10.8634 27.0232 10.71 27.1173C10.4835 27.2039 10.3405 27.2523 10.2851 27.2721C10.1173 27.322 9.97281 27.3469 9.84806 27.3469C9.56902 27.3469 9.3153 27.2904 9.08691 27.1784C8.8074 27.0429 8.66858 26.8585 8.66858 26.6283C8.66858 26.5813 8.67374 26.5356 8.68171 26.4933C8.72955 26.2825 8.82287 26.1135 8.95982 25.9827C9.08972 25.8618 9.26184 25.7662 9.47757 25.7013H9.4968C9.52025 25.7149 9.55214 25.7262 9.57605 25.7371Z" fill="#221F1F"/>
<path d="M15.397 24.291C15.4584 24.4034 15.5067 24.538 15.5447 24.7004C15.5602 24.7564 15.5972 25.0029 15.6615 25.4415C15.6751 25.5389 15.6962 25.6556 15.7281 25.7846C15.8097 26.1342 15.8538 26.3352 15.8622 26.3907C15.8725 26.4354 15.8917 26.5093 15.9307 26.6095C16.0076 26.8293 16.0507 26.9662 16.0615 27.0203C15.8767 26.977 15.737 26.762 15.6465 26.3672C15.639 26.353 15.6132 26.1968 15.5602 25.9018C15.5259 25.682 15.4898 25.4589 15.4547 25.2392C15.4143 24.9865 15.3604 24.7695 15.2943 24.5884C15.1775 24.6613 15.079 24.8067 14.9922 25.0321C14.9261 25.21 14.86 25.3898 14.7962 25.5719C14.7226 25.7347 14.649 25.8745 14.5706 25.9907C14.4492 26.1761 14.3343 26.2886 14.233 26.3333C14.2086 26.3389 14.1842 26.3488 14.1481 26.353C14.119 26.3657 14.089 26.3672 14.0726 26.3672C13.8991 26.3672 13.718 26.2297 13.5342 25.9573C13.4521 25.8448 13.3752 25.7262 13.3006 25.6034C13.2823 25.65 13.2655 25.6956 13.2584 25.754C13.2472 25.8058 13.2472 25.8585 13.2472 25.9088C13.2472 26.034 13.2823 26.226 13.3489 26.489C13.4146 26.7497 13.4521 26.9417 13.4521 27.0617C13.4521 27.1262 13.4451 27.186 13.4305 27.2523C13.3339 27.2311 13.2655 27.161 13.2331 27.0462C13.2106 26.9752 13.1979 26.865 13.1979 26.7234C13.1942 26.6669 13.1839 26.5733 13.1642 26.4354C13.1468 26.3065 13.1351 26.2166 13.1332 26.1648C13.1332 26.0858 13.1168 25.8806 13.0887 25.5512C13.0727 25.3978 13.0676 25.2735 13.0676 25.1771C13.0676 25.1201 13.0577 25.0514 13.0375 24.9742C12.9916 24.8034 12.9709 24.7027 12.9709 24.6712C12.9709 24.6251 12.9817 24.5747 12.9986 24.5234C13.0727 24.5498 13.1234 24.578 13.1463 24.6086C13.1703 24.6387 13.1876 24.7102 13.2036 24.8171C13.2176 24.93 13.2373 25.0175 13.2542 25.0891C13.2823 25.1902 13.3189 25.282 13.3672 25.3752C13.4709 25.5719 13.5726 25.7371 13.6744 25.8618C13.8245 26.0462 13.9652 26.1389 14.096 26.1389C14.1518 26.1389 14.2086 26.1196 14.2635 26.0858C14.3197 26.0462 14.376 25.9874 14.4281 25.9018C14.5655 25.6872 14.6508 25.5399 14.6935 25.4702C14.7868 25.3027 14.8558 25.1545 14.8914 25.0236C14.9294 24.8891 14.9922 24.7545 15.0767 24.6251C15.1526 24.4858 15.2422 24.3771 15.3299 24.291" fill="#221F1F"/>
<path d="M17.1886 25.7371C17.243 25.7709 17.2829 25.8152 17.3073 25.8618C17.3349 25.9102 17.3438 25.9629 17.3438 26.0189C17.3438 26.0886 17.3279 26.1465 17.2885 26.1996C17.2885 26.0735 17.2693 25.9827 17.221 25.9258C17.1834 25.8698 17.1244 25.8378 17.0488 25.8378C16.9335 25.8378 16.8026 25.9018 16.6619 26.0232C16.5208 26.1418 16.4317 26.2679 16.3937 26.3926C16.3698 26.4754 16.344 26.5535 16.3247 26.6345C16.2933 26.7507 16.2783 26.8462 16.2783 26.9192C16.2783 27.009 16.2947 27.0801 16.3304 27.1286C16.3698 27.1832 16.4317 27.2104 16.525 27.2199C16.5372 27.2236 16.5574 27.226 16.5841 27.226C16.7374 27.226 16.8866 27.1662 17.0282 27.0462C17.1431 26.929 17.2561 26.8109 17.3701 26.6914C17.5047 26.5535 17.6365 26.466 17.7533 26.4307C17.7673 26.4679 17.7865 26.5432 17.8091 26.6528C17.8419 26.8349 17.8944 26.9587 17.954 27.0203C17.9952 27.0617 18.0379 27.0872 18.0867 27.106C18.1397 27.1262 18.195 27.1286 18.2555 27.1286C18.2968 27.1286 18.3474 27.1262 18.4169 27.1159C18.5608 27.098 18.6499 27.0872 18.6771 27.0872H18.7212C18.6232 27.1342 18.5285 27.1846 18.4314 27.2312C18.3282 27.273 18.234 27.297 18.1467 27.297C18.1078 27.297 18.0675 27.2904 18.0229 27.2857C17.9165 27.265 17.8349 27.2175 17.7692 27.1436C17.7561 27.1272 17.6843 26.9874 17.5567 26.7234C17.4611 26.8213 17.3612 26.913 17.266 27.009C17.1511 27.1173 17.0488 27.1973 16.9569 27.2523C16.8936 27.2904 16.8186 27.322 16.7374 27.3469C16.6605 27.3752 16.5803 27.386 16.5058 27.386H16.4626C16.449 27.3813 16.4317 27.3789 16.4218 27.3789C16.3144 27.3643 16.2394 27.3196 16.2005 27.241C16.17 27.1846 16.1536 27.0872 16.1536 26.953C16.1536 26.6787 16.2394 26.4241 16.3988 26.186C16.5625 25.946 16.7684 25.7752 17.0259 25.6721C17.0488 25.682 17.0737 25.6872 17.0972 25.6876C17.1394 25.7084 17.1694 25.7262 17.1886 25.7371Z" fill="#221F1F"/>
<path d="M19.549 25.0778V24.7813C19.549 24.7432 19.5565 24.7164 19.5673 24.7027C19.5809 24.6844 19.5987 24.6792 19.624 24.6792C19.6629 24.6844 19.6972 24.6844 19.7192 24.6844C19.7192 24.9004 19.7248 25.082 19.737 25.2274C19.7492 25.37 19.7788 25.5272 19.8177 25.7013C20.0114 25.682 20.1835 25.6411 20.3275 25.5837C20.4907 25.5192 20.6272 25.4298 20.7458 25.3107C20.7458 25.4458 20.6975 25.5441 20.5967 25.61C20.5305 25.6571 20.4156 25.6957 20.252 25.7371C20.1197 25.7686 20.0283 25.8152 19.9837 25.8679C19.9401 25.9206 19.9167 26.0062 19.9167 26.1342C19.9303 26.2886 19.9626 26.4542 20.0114 26.6199C20.055 26.762 20.1141 26.9121 20.1835 27.0763C20.2435 27.1926 20.3186 27.3389 20.4133 27.513C20.199 27.4627 20.0423 27.2867 19.9359 26.985C19.8885 26.8481 19.8365 26.5968 19.783 26.2298C19.7694 26.1135 19.7267 26.0326 19.6686 25.9827C19.6212 25.9375 19.5452 25.9173 19.451 25.9173C19.3961 25.9173 19.3178 25.9258 19.2188 25.946C19.0012 25.9907 18.868 26.0114 18.816 26.0114C18.755 26.0114 18.6978 26.0034 18.6504 25.9827C18.5998 25.9611 18.5571 25.9206 18.5233 25.8698C18.581 25.8397 18.6354 25.8255 18.6959 25.8152C18.755 25.8086 18.8244 25.8048 18.914 25.8048H19.0209C19.125 25.8048 19.2254 25.7935 19.3253 25.7804C19.4313 25.7629 19.5415 25.7371 19.6531 25.7013C19.624 25.5653 19.5987 25.4604 19.5874 25.394C19.5668 25.2698 19.549 25.1634 19.549 25.0778Z" fill="#221F1F"/>
<path d="M21.0483 25.9347C21.0877 26.2805 21.1149 26.4852 21.1294 26.5563C21.1857 26.8029 21.2805 26.9831 21.4118 27.0871C21.4877 26.8876 21.5234 26.7779 21.5342 26.7619C21.5928 26.6452 21.6725 26.5667 21.778 26.5285C21.8437 26.5036 21.9014 26.489 21.9563 26.489C22.035 26.489 22.1124 26.5285 22.195 26.6038C22.2156 26.6255 22.2639 26.6739 22.3483 26.7563C22.5115 26.9285 22.6513 27.0542 22.7634 27.1158C22.8614 27.1728 22.965 27.2038 23.0762 27.2198C23.0762 27.2259 23.0762 27.2311 23.078 27.2349C23.1043 27.2528 23.1137 27.2706 23.1071 27.2857C23.1043 27.3083 23.0856 27.3281 23.0635 27.3389C23.0443 27.3469 23.0143 27.3539 22.9786 27.3539C22.9402 27.3539 22.9003 27.3469 22.8576 27.3389C22.8135 27.3281 22.7854 27.3215 22.776 27.3177C22.6921 27.2904 22.6058 27.241 22.52 27.1761C22.4609 27.1285 22.3483 27.0099 22.1795 26.8222C22.1368 26.7756 22.0913 26.7375 22.0477 26.7163C22.006 26.6871 21.9628 26.6739 21.9286 26.6739C21.8479 26.6739 21.7748 26.7276 21.7119 26.8335C21.6627 26.9116 21.6176 27.0203 21.5801 27.153C21.5618 27.2104 21.5389 27.257 21.5079 27.2904C21.4812 27.3149 21.4483 27.3332 21.4155 27.3332C21.3672 27.3332 21.3184 27.3083 21.265 27.265C21.2176 27.2104 21.1782 27.1558 21.1473 27.0871C21.061 26.8975 20.9972 26.6951 20.9508 26.4787C20.9025 26.2636 20.8832 26.0495 20.8832 25.8368C20.8832 25.7751 20.8738 25.7013 20.8626 25.618C20.8373 25.4269 20.8251 25.305 20.8251 25.2598C20.8251 25.1483 20.8429 25.057 20.8832 24.9813C20.9508 25.0862 20.9925 25.2406 21.0136 25.4415C21.0211 25.6029 21.0347 25.7709 21.0483 25.9347Z" fill="#221F1F"/>
<path d="M0 23.3319H24.6767V23.2731H0V23.3319Z" fill="#221F1F"/>
<path d="M23.9573 24.7672C23.9179 24.7356 23.8598 24.7192 23.7843 24.7192H23.6244V25.1145H23.7651C23.8429 25.1145 23.9043 25.0966 23.9494 25.0632C23.9953 25.0288 24.0178 24.9785 24.0178 24.9149C24.0178 24.85 23.9963 24.8034 23.9573 24.7672ZM24.205 25.6458L24.0976 25.6683L23.7613 25.2015H23.6244V25.657H23.5198V24.6251H23.7866C23.8898 24.6251 23.9714 24.6491 24.0342 24.6989C24.0915 24.7479 24.1219 24.8156 24.1219 24.906C24.1219 24.9469 24.1154 24.9813 24.1018 25.0119C24.0896 25.0458 24.0722 25.0721 24.0516 25.0956C24.0305 25.1178 24.0033 25.1385 23.9742 25.1545C23.9447 25.1695 23.909 25.1813 23.8743 25.1883" fill="#221F1F"/>
<path d="M23.7955 24.3827C23.3617 24.3827 23.0076 24.7338 23.0076 25.162C23.0076 25.5931 23.3617 25.9436 23.7955 25.9436C24.2298 25.9436 24.582 25.5931 24.582 25.162C24.582 24.7338 24.2298 24.3827 23.7955 24.3827ZM23.7955 26.0359C23.3101 26.0359 22.9138 25.6443 22.9138 25.162C22.9138 24.682 23.3101 24.291 23.7955 24.291C24.2823 24.291 24.6767 24.682 24.6767 25.162C24.6767 25.6443 24.2823 26.0359 23.7955 26.0359Z" fill="#221F1F"/>
<path d="M1.74835 20.0981L1.79056 20.8284L1.6691 20.8341C1.62783 20.579 1.56217 20.4157 1.46744 20.339C1.37505 20.2651 1.21841 20.2289 0.992828 20.2289C0.827748 20.2289 0.727386 20.2341 0.687992 20.244C0.651881 20.2567 0.637811 20.2915 0.637811 20.356V21.0289C0.66126 21.0331 0.677675 21.0331 0.683302 21.0331H0.710972C0.873708 21.0331 0.986263 20.9955 1.04676 20.9089C1.08428 20.86 1.10914 20.771 1.12461 20.6378H1.2578V21.579H1.12461V21.5202C1.11523 21.3668 1.06552 21.2623 0.972662 21.2072C0.920606 21.1776 0.839472 21.1607 0.73489 21.1597H0.637811V21.8948L0.639687 21.9479C0.641094 21.9818 0.657509 22.0016 0.680957 22.0129C0.705344 22.0199 0.742394 22.0228 0.794919 22.0275C0.808051 22.0284 0.833845 22.0284 0.87746 22.0284C0.928109 22.0317 0.96938 22.0317 1.00315 22.0317C1.22826 22.0317 1.3863 21.9978 1.48479 21.9277C1.58234 21.8614 1.66019 21.6943 1.70896 21.4279L1.71928 21.4007L1.83746 21.4082L1.77931 22.1677H0V22.0463L0.17446 22.035C0.240586 22.035 0.286077 22.0148 0.300616 21.9865C0.314216 21.9644 0.320313 21.9249 0.320313 21.8614V20.3978C0.320313 20.3117 0.309057 20.2628 0.283732 20.2477C0.253718 20.2341 0.164612 20.2237 0.00656571 20.2204V20.0981" fill="#005AA9"/>
<path fill-rule="evenodd" clip-rule="evenodd" d="M2.47196 21.4844C2.59624 21.4336 2.7904 21.386 3.0474 21.346C3.0474 21.3291 3.05115 21.3211 3.05115 21.3098C3.05443 21.3042 3.05443 21.2891 3.05443 21.2726C3.05443 21.1465 3.03052 21.0552 2.99253 21.0105C2.94657 20.9484 2.85699 20.9164 2.73131 20.9164C2.67315 20.9164 2.61312 20.9272 2.55309 20.9508C2.49776 20.9724 2.46633 20.9955 2.46633 21.0275C2.46633 21.0331 2.47947 21.051 2.49963 21.0882C2.51886 21.1263 2.52965 21.1597 2.52965 21.1912C2.52965 21.2308 2.51558 21.2642 2.48978 21.2891C2.46258 21.3098 2.42225 21.3235 2.37676 21.3235C2.32939 21.3235 2.28718 21.3098 2.25576 21.2755C2.22809 21.2435 2.21355 21.2002 2.21355 21.1484C2.21355 21.051 2.26608 20.9724 2.3716 20.9023C2.47947 20.8326 2.61312 20.7969 2.76929 20.7969C3.00378 20.7969 3.16511 20.8515 3.24671 20.9635C3.29174 21.0275 3.31612 21.1131 3.31612 21.2308V21.3018L3.30393 21.7343V21.7926C3.30393 21.8627 3.30815 21.9159 3.32081 21.9446C3.33817 21.9978 3.37146 22.0223 3.42586 22.0223C3.44322 22.0223 3.46526 22.0199 3.49293 22.0072C3.51544 21.9959 3.53373 21.9922 3.54358 21.9922C3.55437 21.9922 3.55999 21.9936 3.56468 22.0016C3.57312 22.0072 3.57688 22.0147 3.57688 22.0289C3.57688 22.0604 3.55437 22.0938 3.50372 22.1338C3.45447 22.1733 3.39163 22.195 3.32175 22.195C3.23546 22.195 3.17402 22.1691 3.12853 22.1164C3.10461 22.0858 3.08257 22.0411 3.06147 21.979C3.00097 22.0562 2.91937 22.1164 2.82745 22.155C2.73553 22.1884 2.64455 22.2077 2.55263 22.2077C2.426 22.2077 2.32658 22.179 2.24873 22.123C2.17322 22.0637 2.13477 21.979 2.13477 21.8627C2.13477 21.707 2.24826 21.5757 2.47196 21.4844ZM2.86075 22.0049C2.98127 21.939 3.0413 21.8293 3.04458 21.6787L3.0474 21.5089V21.4599C2.85512 21.4806 2.70176 21.522 2.58827 21.579C2.47665 21.6378 2.41662 21.7192 2.41662 21.8312C2.41662 21.8947 2.44335 21.9479 2.47947 21.9959C2.52308 22.043 2.58076 22.0637 2.65252 22.0637C2.72427 22.0637 2.79274 22.0463 2.86075 22.0049Z" fill="#005AA9"/>
<path d="M3.89581 20.9084C3.97273 20.8284 4.07543 20.7912 4.21191 20.7912C4.29679 20.7912 4.37136 20.8086 4.43936 20.834C4.47407 20.8486 4.51862 20.8754 4.56223 20.9126L4.6504 20.8058H4.74373V21.2848H4.63915C4.60726 21.1874 4.56786 21.1051 4.52706 21.0514C4.4478 20.9573 4.34463 20.9088 4.21191 20.9088C4.1303 20.9088 4.06465 20.9272 4.0154 20.9672C3.97132 21.0039 3.94834 21.0514 3.94834 21.1131C3.94834 21.1813 3.97601 21.2345 4.03557 21.2684C4.07168 21.2891 4.1303 21.3084 4.21191 21.3234L4.45296 21.3724C4.58521 21.4015 4.68135 21.4495 4.74373 21.5088C4.80704 21.5752 4.83471 21.6646 4.83471 21.7888C4.83471 21.9211 4.7911 22.0222 4.69308 22.098C4.60022 22.1733 4.48814 22.2076 4.35495 22.2076C4.27287 22.2076 4.20206 22.1949 4.13734 22.1691C4.07215 22.1427 4.0154 22.1074 3.96241 22.0693L3.86205 22.1949H3.76685V21.6495H3.87518C3.90238 21.7611 3.94834 21.8491 3.9943 21.9159C4.08341 22.0349 4.21191 22.0938 4.37136 22.0938C4.46187 22.0938 4.5341 22.0693 4.58521 22.0222C4.63821 21.9818 4.66353 21.9277 4.66353 21.8707C4.66353 21.7926 4.63352 21.7399 4.57583 21.7079C4.51956 21.6787 4.39668 21.6434 4.21613 21.6001C4.06043 21.5634 3.95069 21.5201 3.88175 21.4632C3.8189 21.4081 3.78514 21.3211 3.78514 21.1917C3.78514 21.0754 3.82125 20.9804 3.89581 20.9084Z" fill="#005AA9"/>
<path d="M5.00354 20.8374L5.03449 20.8341C5.17378 20.8251 5.27367 20.7395 5.3337 20.579C5.37028 20.4849 5.39092 20.3767 5.39654 20.2538H5.5152V20.8374H5.94572V20.9541H5.5152V21.7964C5.5152 21.8501 5.52223 21.8971 5.53771 21.9352C5.56444 22.0016 5.61743 22.035 5.69294 22.035C5.78298 22.035 5.84348 21.9837 5.88522 21.8821C5.90398 21.8294 5.91758 21.7494 5.92415 21.6468H6.04045C6.03811 21.7889 6.01653 21.8971 5.98089 21.9818C5.9082 22.1315 5.78298 22.2035 5.59492 22.2035C5.44579 22.2035 5.34824 22.1555 5.28868 22.0472C5.26382 21.9936 5.24929 21.9159 5.24929 21.8218V20.9635H5.00354" fill="#005AA9"/>
<path fill-rule="evenodd" clip-rule="evenodd" d="M6.36955 21.0067C6.49242 20.8627 6.64859 20.7912 6.83571 20.7912C7.01908 20.7912 7.16259 20.8613 7.26014 20.9954C7.36613 21.1361 7.42616 21.3084 7.43272 21.5201H6.48445C6.48445 21.6477 6.50227 21.7531 6.54354 21.8387C6.61248 21.9884 6.73441 22.0604 6.91122 22.0604C7.02237 22.0604 7.11288 22.0274 7.18651 21.9587C7.23294 21.9197 7.27796 21.85 7.33752 21.7531L7.43413 21.8077C7.37785 21.9352 7.30188 22.0349 7.20949 22.1051C7.11288 22.1733 6.99188 22.2076 6.84275 22.2076C6.65938 22.2076 6.50649 22.1474 6.37752 22.0284C6.2509 21.9079 6.18665 21.7342 6.18665 21.5065C6.18665 21.3098 6.24527 21.1484 6.36955 21.0067ZM7.10584 21.386C7.12273 21.3724 7.1307 21.3404 7.1307 21.2891C7.1307 21.2175 7.11663 21.155 7.09131 21.0881C7.043 20.9724 6.95296 20.9088 6.82962 20.9088C6.69267 20.9088 6.59419 20.9898 6.53791 21.1583C6.50649 21.2434 6.49242 21.3234 6.49242 21.4015H7.01392C7.06129 21.4006 7.09553 21.395 7.10584 21.386Z" fill="#005AA9"/>
<path d="M7.59229 20.9508V20.8378L8.10113 20.8087V21.2534C8.14287 21.1296 8.18742 21.0369 8.23619 20.9785C8.31873 20.8628 8.42754 20.8087 8.55791 20.8087C8.63107 20.8087 8.68548 20.8284 8.72768 20.8703C8.76895 20.9155 8.79006 20.9672 8.79006 21.0331C8.79006 21.0844 8.77458 21.1263 8.74832 21.1606C8.71971 21.2002 8.6775 21.2209 8.61747 21.2209C8.57573 21.2209 8.54009 21.2072 8.51195 21.1776C8.47959 21.1522 8.46646 21.1145 8.46646 21.0675C8.46646 21.0355 8.46974 21.0105 8.47959 20.9889C8.49366 20.9734 8.50773 20.9508 8.52931 20.9296C8.39236 20.9508 8.29482 21.051 8.21697 21.2265C8.14709 21.4006 8.11145 21.6035 8.11145 21.8345C8.11145 21.9277 8.11707 21.9884 8.12739 22.0129C8.1363 22.035 8.17101 22.0491 8.22447 22.0491L8.39236 22.0519V22.1677H7.61527V22.0519H7.65513C7.66873 22.0491 7.67764 22.0491 7.68936 22.0491H7.74048C7.78926 22.0491 7.82349 22.043 7.83756 22.0228C7.85163 22.0072 7.8596 21.971 7.8596 21.9197V21.2308L7.85726 21.1334C7.85163 21.0675 7.84413 21.019 7.83053 20.9955C7.81552 20.9724 7.7841 20.9541 7.72923 20.9508" fill="#005AA9"/>
<path d="M8.8989 22.0519L9.0274 22.0496C9.07242 22.0496 9.09868 22.043 9.11369 22.0317C9.13011 22.0199 9.13855 21.9922 9.13855 21.9479V21.1051C9.13855 21.0331 9.12682 20.9856 9.09868 20.9724C9.07242 20.9541 8.99504 20.9484 8.87451 20.9508V20.8374L9.39133 20.8087V21.0882C9.4476 21.0105 9.49685 20.9484 9.54609 20.9089C9.6291 20.8421 9.73556 20.8087 9.85468 20.8087C10.0038 20.8087 10.114 20.8515 10.19 20.9432C10.2646 21.0355 10.2993 21.1606 10.2993 21.3235V21.9555C10.2993 21.9922 10.3063 22.0148 10.3194 22.0284C10.3288 22.043 10.3593 22.0496 10.4057 22.0496L10.5309 22.0519V22.1677H9.80121V22.0519C9.91049 22.0519 9.97708 22.0463 9.99865 22.0392C10.0221 22.0284 10.0357 22.0016 10.0357 21.9517V21.3235C10.0357 21.2176 10.0146 21.1362 9.9738 21.0755C9.93534 21.0152 9.86171 20.9842 9.7637 20.9842C9.69945 20.9842 9.63379 21.0011 9.57423 21.0416C9.45886 21.1221 9.40024 21.2642 9.40024 21.4656V21.9446C9.40024 21.9889 9.40399 22.0148 9.41947 22.0284C9.43119 22.043 9.46261 22.0496 9.50435 22.0496L9.63379 22.0519V22.1677H8.8989" fill="#005AA9"/>
<path fill-rule="evenodd" clip-rule="evenodd" d="M12.7233 20.9734C12.8368 20.924 12.8959 20.8124 12.8959 20.6402C12.8959 20.4595 12.8335 20.339 12.7186 20.2811C12.6445 20.2421 12.517 20.2237 12.343 20.2237C12.2454 20.2237 12.1859 20.2341 12.1563 20.2538C12.1282 20.2684 12.1127 20.3155 12.1127 20.3767V21.0331C12.4068 21.0416 12.6098 21.0275 12.7233 20.9734ZM11.4758 22.0463C11.6386 22.0392 11.7328 22.0284 11.7577 22.0129C11.7858 21.9978 11.7971 21.9479 11.7971 21.8628V20.3428L11.7938 20.3042C11.7919 20.2755 11.775 20.2538 11.7478 20.2421C11.7183 20.2341 11.6836 20.2308 11.6386 20.2289L11.4758 20.22V20.0981H12.5582C12.7937 20.0981 12.9616 20.1489 13.0657 20.2496C13.1735 20.356 13.2232 20.4661 13.2232 20.5969C13.2232 20.7724 13.1538 20.9023 13.0085 20.9865C12.9339 21.0331 12.8335 21.0675 12.7121 21.0858C12.857 21.1037 12.9747 21.1362 13.069 21.1875C13.2415 21.2755 13.3302 21.4162 13.3302 21.6035C13.3302 21.8444 13.2082 22.0072 12.963 22.0938C12.8335 22.1428 12.6487 22.1677 12.4129 22.1677H11.4758V22.0463ZM12.2398 21.1607C12.1859 21.1677 12.146 21.1677 12.1127 21.1677V21.8708C12.1127 21.9517 12.1282 21.9978 12.1526 22.0152C12.1802 22.0284 12.252 22.035 12.3688 22.035C12.6098 22.035 12.7707 22.0049 12.8556 21.939C12.9405 21.8755 12.9803 21.7588 12.9803 21.5846C12.9803 21.4035 12.9104 21.2849 12.7707 21.2209C12.6802 21.1814 12.539 21.1597 12.3467 21.1597C12.328 21.1597 12.29 21.1607 12.2398 21.1607Z" fill="#005AA9"/>
<path fill-rule="evenodd" clip-rule="evenodd" d="M13.947 21.4844C14.0708 21.4336 14.2635 21.386 14.5229 21.346C14.5261 21.3291 14.5261 21.3211 14.5261 21.3098V21.2726C14.5261 21.1465 14.506 21.0552 14.4675 21.0105C14.4206 20.9484 14.332 20.9164 14.2058 20.9164C14.1481 20.9164 14.0877 20.9272 14.0243 20.9508C13.9681 20.9724 13.9357 20.9955 13.9357 21.0275C13.9357 21.0331 13.9498 21.051 13.9737 21.0882C13.992 21.1263 14.0018 21.1597 14.0018 21.1912C14.0018 21.2308 13.9915 21.2642 13.9615 21.2891C13.9348 21.3098 13.8963 21.3235 13.8494 21.3235C13.8006 21.3235 13.758 21.3098 13.7308 21.2755C13.6998 21.2435 13.6885 21.2002 13.6885 21.1484C13.6885 21.051 13.7378 20.9724 13.8471 20.9023C13.9554 20.8326 14.0848 20.7969 14.2424 20.7969C14.475 20.7969 14.6359 20.8515 14.7184 20.9635C14.7658 21.0275 14.7911 21.1131 14.7911 21.2308V21.3018L14.778 21.7343V21.7926C14.778 21.8627 14.7846 21.9159 14.7925 21.9446C14.8094 21.9978 14.8418 22.0223 14.898 22.0223C14.9168 22.0223 14.936 22.0199 14.9651 22.0072C14.9886 21.9959 15.005 21.9922 15.0167 21.9922C15.028 21.9922 15.035 21.9936 15.0397 22.0016C15.0486 22.0072 15.0528 22.0147 15.0528 22.0289C15.0528 22.0604 15.028 22.0938 14.9768 22.1338C14.9262 22.1733 14.8652 22.195 14.7963 22.195C14.709 22.195 14.6471 22.1691 14.6031 22.1164C14.5791 22.0858 14.5557 22.0411 14.5355 21.979C14.4732 22.0562 14.3948 22.1164 14.301 22.155C14.2096 22.1884 14.1167 22.2077 14.0239 22.2077C13.8963 22.2077 13.7955 22.179 13.7204 22.123C13.6445 22.0637 13.6102 21.979 13.6102 21.8627C13.6102 21.707 13.7204 21.5757 13.947 21.4844ZM14.3362 22.0049C14.453 21.939 14.5125 21.8293 14.5196 21.6787L14.5229 21.5089V21.4599C14.3311 21.4806 14.1753 21.522 14.0623 21.579C13.9484 21.6378 13.8958 21.7192 13.8958 21.8312C13.8958 21.8947 13.9151 21.9479 13.9554 21.9959C13.999 22.043 14.0525 22.0637 14.1238 22.0637C14.1955 22.0637 14.2635 22.0463 14.3362 22.0049Z" fill="#005AA9"/>
<path d="M15.1752 22.0519L15.3018 22.0496C15.3445 22.0496 15.3731 22.043 15.3877 22.0317C15.4055 22.0199 15.4106 21.9922 15.4106 21.9479V21.1051C15.4106 21.0331 15.3999 20.9856 15.3731 20.9724C15.3445 20.9541 15.2695 20.9484 15.1527 20.9508V20.8374L15.6672 20.8087V21.0882C15.7202 21.0105 15.7699 20.9484 15.8173 20.9089C15.9073 20.8421 16.0072 20.8087 16.1282 20.8087C16.2783 20.8087 16.388 20.8515 16.4644 20.9432C16.5371 21.0355 16.5751 21.1606 16.5751 21.3235V21.9555C16.5751 21.9922 16.5812 22.0148 16.5944 22.0284C16.6051 22.043 16.6347 22.0496 16.6792 22.0496L16.8091 22.0519V22.1677H16.0757V22.0519C16.1835 22.0519 16.244 22.0463 16.275 22.0392C16.2998 22.0284 16.3097 22.0016 16.3097 21.9517V21.3235C16.3097 21.2176 16.289 21.1362 16.244 21.0755C16.2079 21.0152 16.138 20.9842 16.041 20.9842C15.9711 20.9842 15.911 21.0011 15.851 21.0416C15.7324 21.1221 15.6737 21.2642 15.6737 21.4656V21.9446C15.6737 21.9889 15.6794 22.0148 15.6939 22.0284C15.7052 22.043 15.7375 22.0496 15.7807 22.0496L15.9073 22.0519V22.1677H15.1752" fill="#005AA9"/>
<path d="M16.902 20.2011V20.0816L17.4254 20.0552V21.4882L17.8587 21.0853C17.8737 21.0693 17.8868 21.0548 17.8957 21.0444C17.9023 21.0355 17.9051 21.0275 17.9051 21.0105C17.9051 20.9992 17.9014 20.9889 17.8901 20.9785C17.8798 20.9672 17.8587 20.9573 17.8212 20.954L17.6664 20.9512V20.8373H18.4252V20.9512C18.3324 20.9573 18.2583 20.9785 18.1978 21.0011C18.1368 21.0275 18.0721 21.0693 18.0074 21.1333L17.8001 21.3098L18.1964 21.8387C18.2456 21.9079 18.2902 21.9587 18.3305 21.9884C18.398 22.035 18.4693 22.0561 18.5579 22.0519V22.1677H17.794V22.0519L17.8901 22.0491C17.9295 22.0472 17.9581 22.0463 17.9675 22.0411C17.9788 22.035 17.9844 22.0223 17.9844 22.0129C17.9844 22.0016 17.9844 21.9959 17.9788 21.9865C17.9741 21.9757 17.9652 21.9587 17.9459 21.9329L17.6101 21.475L17.4254 21.6434V21.9352C17.4254 21.9818 17.4319 22.0129 17.4455 22.0274C17.4577 22.043 17.4854 22.0491 17.5248 22.0491L17.6458 22.0519V22.1677H16.932V22.0519L17.0525 22.0491C17.1041 22.0491 17.1341 22.043 17.1468 22.0274C17.1604 22.0129 17.1646 21.9818 17.1646 21.9352V20.3362C17.1646 20.2811 17.1534 20.2439 17.1266 20.2308C17.1074 20.2157 17.0567 20.2082 16.984 20.2039" fill="#005AA9"/>
<path d="M19.4763 22.1677V22.0463C19.5814 22.0411 19.6423 22.035 19.6653 22.035C19.6836 22.035 19.6991 22.0317 19.7099 22.0284C19.7399 22.0213 19.7661 22.0072 19.7727 21.9889C19.784 21.9644 19.791 21.9343 19.791 21.8934V20.3706C19.791 20.2971 19.7704 20.2538 19.7399 20.2421C19.7099 20.2341 19.6226 20.2237 19.4763 20.22V20.0981H20.433V20.22C20.2801 20.2237 20.1896 20.2308 20.1554 20.2421C20.1259 20.2538 20.1094 20.2971 20.1094 20.3706V21.8628C20.1094 21.9446 20.1259 21.9936 20.1592 22.0129C20.1934 22.035 20.2736 22.0463 20.404 22.0463C20.5934 22.0463 20.7346 22.0148 20.8293 21.963C20.9925 21.8628 21.0901 21.6703 21.1295 21.3799L21.2491 21.3861L21.1909 22.1677" fill="#005AA9"/>
<path d="M21.3568 20.8374L21.3873 20.8341C21.5266 20.8251 21.6265 20.7395 21.6874 20.579C21.725 20.4849 21.7437 20.3767 21.7479 20.2538H21.8694V20.8374H22.2995V20.9541H21.8694V21.7964C21.8694 21.8501 21.8746 21.8971 21.89 21.9352C21.9172 22.0016 21.9712 22.035 22.0439 22.035C22.1381 22.035 22.201 21.9837 22.2385 21.8821C22.2582 21.8294 22.2727 21.7494 22.2798 21.6468H22.3933C22.389 21.7889 22.3698 21.8971 22.3314 21.9818C22.2624 22.1315 22.1381 22.2035 21.9482 22.2035C21.8023 22.2035 21.7015 22.1555 21.6457 22.0472C21.6176 21.9936 21.6026 21.9159 21.6026 21.8218V20.9635H21.3568" fill="#005AA9"/>
<path fill-rule="evenodd" clip-rule="evenodd" d="M22.7211 21.019C22.8266 20.8755 22.9687 20.8086 23.145 20.8086C23.2304 20.8086 23.3082 20.8284 23.3711 20.8628C23.4405 20.9032 23.4935 20.9573 23.5361 21.0275V20.3254C23.5361 20.2628 23.5113 20.2199 23.4602 20.2082C23.4292 20.2039 23.3575 20.2006 23.244 20.2011V20.0816L23.7955 20.0552V21.9352C23.7955 21.963 23.8039 21.9884 23.8157 22.0129C23.8307 22.0369 23.8611 22.0491 23.9118 22.0491L24.0276 22.0519V22.1677L23.5436 22.195V21.9446C23.5113 22.0129 23.471 22.0693 23.4222 22.1074C23.3368 22.1757 23.2365 22.2077 23.1202 22.2077C22.971 22.2077 22.836 22.1554 22.7276 22.035C22.6188 21.9211 22.5607 21.7399 22.5607 21.4962C22.5607 21.3159 22.6155 21.1583 22.7211 21.019ZM22.9387 21.9098C22.9935 22.0072 23.0761 22.0561 23.1891 22.0561C23.3368 22.0561 23.4405 21.9752 23.4968 21.8138C23.523 21.7253 23.5385 21.6242 23.5385 21.4995C23.5385 21.3677 23.5197 21.2576 23.4822 21.1677C23.425 21.0284 23.3265 20.9616 23.1957 20.9616C23.0634 20.9616 22.9729 21.0331 22.918 21.1776C22.8758 21.2703 22.8613 21.386 22.8613 21.5202C22.8613 21.6825 22.8852 21.8138 22.9387 21.9098Z" fill="#005AA9"/>
<path d="M24.6232 21.9028C24.6565 21.9366 24.6767 21.979 24.6767 22.0275C24.6767 22.0764 24.6565 22.1174 24.6232 22.1564C24.5866 22.1884 24.5463 22.2035 24.498 22.2035C24.4478 22.2035 24.4061 22.1884 24.369 22.1564C24.332 22.1192 24.3127 22.0764 24.3127 22.0275C24.3127 21.979 24.332 21.9366 24.3667 21.9028C24.4009 21.8628 24.4445 21.8491 24.4956 21.8491C24.5463 21.8491 24.5866 21.8628 24.6232 21.9028Z" fill="#005AA9"/>
<path d="M8.30602 12.1194C8.30602 12.1194 1.09499 16.4308 0.119985 13.7589C0.119985 13.7589 -1.11624 10.7391 4.4088 7.00791C4.4088 7.00791 1.58226 7.13685 2.91135 5.56369C2.91135 5.56369 4.76616 3.50161 8.07809 2.31433L7.68978 2.79385C7.68978 2.79385 4.75678 4.04089 5.32049 5.43287C5.64456 6.23521 7.01023 5.27429 7.01023 5.27429L7.56081 5.46487C7.56081 5.46487 1.48471 9.32176 2.97841 12.2483C2.97841 12.2483 4.60014 14.2431 7.88675 11.8972" fill="#005AA9"/>
<path d="M8.72761 2.5397C8.67555 2.58347 8.72761 2.92652 8.72761 2.92652C8.72761 2.92652 10.9046 1.8616 11.5556 2.43947C11.5556 2.43947 12.1732 3.27757 8.69666 5.20884V5.98012C8.69666 5.98012 14.0622 2.79382 14.4487 6.27141C14.4487 6.27141 14.8417 9.32172 10.9412 13.9541C10.9412 13.9541 17.7995 9.06525 17.6321 5.11143C17.6321 5.11143 17.3071 2.1223 12.2407 3.79051C12.2407 3.79051 14.1579 2.25171 12.66 1.35196C12.66 1.35196 11.0711 0.477616 8.72761 2.5397Z" fill="#FFC10E"/>
<path d="M9.12167 0L8.69677 14.4139C14.7996 13.0977 22.6123 11.541 24.5211 11.7683C24.5211 11.7683 25.1092 12.1193 24.0042 12.3462C24.0042 12.3462 7.98205 16.236 1.83983 19.0661L0.994263 16.1409C0.994263 16.1409 4.22459 15.3814 8.31127 14.4953C8.338 13.1396 8.52935 2.60373 7.94969 1.6715" fill="#00A451"/>
<path d="M23.9573 13.9165C23.9179 13.8831 23.8598 13.8647 23.7843 13.8647H23.6244V14.2605H23.7651C23.8429 14.2605 23.9043 14.245 23.9494 14.2115C23.9953 14.1772 24.0178 14.1259 24.0178 14.061C24.0178 13.9988 23.9963 13.9504 23.9573 13.9165ZM24.205 14.7927L24.0976 14.8162L23.7613 14.3494H23.6244V14.8045H23.5198V13.7748H23.7866C23.8898 13.7748 23.9714 13.7984 24.0342 13.8473C24.0915 13.8934 24.1219 13.9654 24.1219 14.0544C24.1219 14.0948 24.1154 14.1315 24.1018 14.1626C24.0896 14.1922 24.0722 14.2191 24.0516 14.2431C24.0305 14.2675 24.0033 14.2873 23.9742 14.3038C23.9447 14.3174 23.909 14.3297 23.8743 14.3362" fill="#221F1F"/>
<path d="M23.7955 13.5334C23.3617 13.5334 23.0076 13.8821 23.0076 14.3118C23.0076 14.7409 23.3617 15.0906 23.7955 15.0906C24.2298 15.0906 24.582 14.7409 24.582 14.3118C24.582 13.8821 24.2298 13.5334 23.7955 13.5334ZM23.7955 15.1828C23.3101 15.1828 22.9138 14.7927 22.9138 14.3118C22.9138 13.8303 23.3101 13.4384 23.7955 13.4384C24.2823 13.4384 24.6767 13.8303 24.6767 14.3118C24.6767 14.7927 24.2823 15.1828 23.7955 15.1828Z" fill="#221F1F"/>
</svg>
