<svg width="60" height="9" viewBox="0 0 60 9" fill="none" xmlns="http://www.w3.org/2000/svg">
<mask id="mask0_2164_189" style="mask-type:luminance" maskUnits="userSpaceOnUse" x="0" y="0" width="13" height="9">
<path d="M0.0368652 0.404663H12.384V8.4984H0.0368652V0.404663Z" fill="white"/>
</mask>
<g mask="url(#mask0_2164_189)">
<path fill-rule="evenodd" clip-rule="evenodd" d="M4.63755 0.419905C4.76332 0.419905 4.88903 0.419905 5.01473 0.419905C5.68325 0.419905 6.3517 0.418898 7.02022 0.421846C7.07163 0.42199 7.13091 0.438028 7.17322 0.466437C8.78622 1.54948 10.3943 2.64008 12.0121 3.71614C12.4003 3.97441 12.5146 4.55099 12.1709 4.92497C12.0887 5.01444 11.9932 5.09571 11.8921 5.16346C10.3804 6.17689 8.86687 7.18744 7.35387 8.19877C7.2312 8.28076 7.11163 8.36771 6.98585 8.44474C6.93936 8.47322 6.87943 8.49408 6.82556 8.49429C6.13553 8.49767 5.44542 8.49559 4.75538 8.49839C4.67697 8.49868 4.61487 8.47675 4.55134 8.43352C3.14816 7.47907 1.74397 6.52613 0.33992 5.57297C0.241509 5.50623 0.142808 5.43985 0.048584 5.35513C0.0745046 5.35513 0.100353 5.35513 0.126274 5.3552C0.844037 5.357 1.56173 5.35815 2.27942 5.36232C2.32245 5.36254 2.37177 5.37685 2.40736 5.40065C3.34549 6.02737 4.28209 6.65631 5.21914 7.2846C5.36217 7.38047 5.50766 7.47281 5.64845 7.57178C5.69914 7.60745 5.73415 7.60766 5.78657 7.57314C6.43885 7.14385 7.09286 6.71715 7.74658 6.28995C8.55207 5.76363 9.35784 5.2379 10.1625 4.71051C10.2186 4.67383 10.2739 4.63154 10.3173 4.58141C10.4347 4.44584 10.4248 4.30517 10.28 4.19916C10.0197 4.00871 9.75539 3.82338 9.48687 3.64465C8.75488 3.15768 8.02001 2.67517 7.28614 2.19108C6.44434 1.63586 5.60239 1.08092 4.76051 0.525627C4.71719 0.497075 4.67466 0.467084 4.63177 0.437813C4.63372 0.431843 4.63567 0.425874 4.63755 0.419905Z" fill="#00904C"/>
</g>
<path fill-rule="evenodd" clip-rule="evenodd" d="M0.0344238 3.45034C0.152114 3.37036 0.25233 3.3016 0.353125 3.23378C1.64815 2.3629 2.94374 1.49282 4.23718 0.619563C4.3153 0.566774 4.36656 0.562962 4.44505 0.621145C4.77075 0.862509 5.10245 1.09582 5.43176 1.33229C5.4462 1.34265 5.45971 1.35444 5.48209 1.37235C5.35227 1.45959 5.22808 1.54323 5.10368 1.62644C4.21248 2.22252 3.32165 2.81895 2.42916 3.41294C2.38605 3.44163 2.328 3.46263 2.27688 3.46263C1.5506 3.46278 0.824245 3.45861 0.0978897 3.45537C0.0839546 3.4553 0.0700918 3.45321 0.0344238 3.45034Z" fill="#00904C"/>
<path d="M0.753214 5.06647H0V3.74084H0.753214V5.06647Z" fill="#C9322F"/>
<path d="M4.02944 5.06647H3.30396V3.74084H4.02944V5.06647Z" fill="#C9322F"/>
<path d="M1.94544 4.04463V3.74084H1.21533V5.06647H1.98241V4.67983H2.83728V4.37604H1.98241V4.04463H1.94544Z" fill="#C9322F"/>
<path d="M1.9824 4.04463H2.83728V3.74084H1.94543V4.04463H1.9824Z" fill="#C9322F"/>
<path d="M5.78074 4.28397H6.31063V3.95486C6.31063 3.95486 6.32832 3.74658 6.07994 3.74658C5.83157 3.74658 4.74254 3.74658 4.74254 3.74658C4.74254 3.74658 4.5177 3.76535 4.5177 3.95867C4.5177 4.152 4.5177 4.85775 4.5177 4.85775C4.5177 4.85775 4.5146 5.06646 4.7333 5.06646C4.95207 5.06646 6.08572 5.06646 6.08572 5.06646C6.08572 5.06646 6.31092 5.03884 6.31092 4.85163C6.31092 4.66443 6.31092 4.55705 6.31092 4.55705H5.78384V4.70398C5.78384 4.70398 5.79345 4.77878 5.7172 4.77878C5.64095 4.77878 5.32788 4.77878 5.32788 4.77878C5.32788 4.77878 5.25453 4.78453 5.25453 4.70571C5.25453 4.62688 5.25453 4.12057 5.25453 4.12057C5.25453 4.12057 5.24817 4.04807 5.32557 4.04807C5.40298 4.04807 5.71951 4.04807 5.71951 4.04807C5.71951 4.04807 5.78074 4.04692 5.78074 4.11654C5.78074 4.18616 5.78074 4.28397 5.78074 4.28397Z" fill="#C9322F"/>
<path fill-rule="evenodd" clip-rule="evenodd" d="M48.287 3.29443C48.287 4.43983 48.287 5.58516 48.287 6.73552C47.6686 6.73552 47.0605 6.73552 46.4478 6.73552C46.4478 4.63071 46.4478 2.5328 46.4478 0.424032C46.4775 0.422593 46.5071 0.419932 46.5365 0.419932C47.091 0.419717 47.6455 0.421083 48.2 0.418278C48.2667 0.417919 48.3055 0.44007 48.342 0.493722C48.8163 1.19214 49.2926 1.88919 49.7682 2.5866C50.0432 2.98985 50.3181 3.39318 50.5933 3.79643C50.6155 3.82901 50.6387 3.86102 50.68 3.89036C50.68 2.73662 50.68 1.58288 50.68 0.424967C51.3055 0.424967 51.9169 0.424967 52.535 0.424967C52.5369 0.459345 52.54 0.489119 52.54 0.518894C52.5402 2.55639 52.5396 4.59396 52.5418 6.63145C52.5421 6.71948 52.519 6.74501 52.4293 6.74444C51.8808 6.74048 51.3327 6.74134 50.7842 6.74444C50.7103 6.74487 50.6673 6.71883 50.6264 6.65935C49.875 5.56293 49.1214 4.46774 48.3682 3.37247C48.3483 3.34355 48.3265 3.31594 48.3055 3.28774C48.2995 3.28997 48.2932 3.29227 48.287 3.29443Z" fill="#00904C"/>
<path fill-rule="evenodd" clip-rule="evenodd" d="M35.0879 2.89454C35.4424 2.89454 35.7901 2.90554 36.1364 2.88908C36.2751 2.88246 36.4286 2.84297 36.5444 2.7699C36.7772 2.62319 36.8026 2.37938 36.7544 2.13205C36.7078 1.89385 36.5415 1.76748 36.309 1.72527C36.2064 1.70671 36.1016 1.69161 35.9977 1.69002C35.6966 1.68542 35.3953 1.68837 35.0879 1.68837C35.0879 2.09357 35.0879 2.49323 35.0879 2.89454ZM35.0881 4.08101C35.0881 4.52346 35.0881 4.94448 35.0881 5.36873C35.1129 5.37082 35.1308 5.37362 35.1489 5.37362C35.5151 5.37355 35.8814 5.37859 36.2474 5.36974C36.3681 5.36686 36.4912 5.33867 36.6075 5.30372C36.9213 5.20943 37.0764 4.90672 37.0026 4.57251C36.9448 4.31036 36.7335 4.13689 36.4226 4.1192C35.9811 4.09402 35.5384 4.09266 35.0881 4.08101ZM33.1024 6.73766C33.1024 4.63069 33.1024 2.53106 33.1024 0.425023C33.1364 0.423081 33.1662 0.419989 33.1961 0.419989C34.4371 0.419773 35.6783 0.413947 36.9193 0.422793C37.3973 0.426174 37.8413 0.550811 38.2109 0.879701C38.7464 1.35581 38.8146 2.12564 38.5492 2.65562C38.3894 2.9748 38.1339 3.18977 37.8042 3.32124C37.7672 3.33599 37.7306 3.35181 37.694 3.36742C37.6916 3.36842 37.6904 3.37187 37.6857 3.37828C37.8134 3.42358 37.9431 3.46084 38.0655 3.51456C38.6997 3.79239 38.9964 4.2731 38.9932 4.96145C38.9893 5.78271 38.4195 6.47429 37.5677 6.6397C37.2038 6.7104 36.8367 6.73975 36.4679 6.74133C35.3809 6.74593 34.2939 6.74284 33.2067 6.74255C33.1735 6.74248 33.1405 6.73953 33.1024 6.73766Z" fill="#00904C"/>
<path fill-rule="evenodd" clip-rule="evenodd" d="M55.2202 6.73572C54.5644 6.73572 53.9192 6.73572 53.2675 6.73572C53.2675 4.63062 53.2675 2.53106 53.2675 0.425604C53.9164 0.425604 54.5617 0.425604 55.2162 0.425604C55.2162 1.21485 55.2162 2.00173 55.2162 2.81356C55.2537 2.78501 55.2753 2.77235 55.2923 2.75495C55.7385 2.29783 56.1841 1.84013 56.6302 1.38279C56.9306 1.0749 57.2309 0.767153 57.533 0.461061C57.5538 0.439845 57.5897 0.421721 57.6185 0.421649C58.3978 0.419635 59.1771 0.420139 59.9564 0.420498C59.9615 0.420498 59.9667 0.424741 59.9815 0.431142C59.9574 0.457105 59.9366 0.481343 59.914 0.503853C59.1621 1.25146 58.4107 1.99957 57.6566 2.74481C57.5976 2.80306 57.6004 2.84226 57.6409 2.90785C58.4101 4.153 59.1771 5.39959 59.9443 6.64597C59.9599 6.67143 59.9741 6.69775 59.9966 6.7368C59.9515 6.73896 59.919 6.74191 59.8867 6.74198C59.1567 6.7422 58.4266 6.7409 57.6967 6.74392C57.6208 6.74428 57.5823 6.71717 57.5459 6.65366C57.1019 5.87923 56.6551 5.10637 56.2089 4.33331C56.1956 4.31008 56.1794 4.28843 56.1823 4.2921C56.0346 4.425 55.8825 4.55353 55.7402 4.6919C55.5818 4.8461 55.4296 5.00691 55.2807 5.17024C55.2477 5.20642 55.2236 5.26517 55.223 5.31379C55.2186 5.74941 55.2202 6.1851 55.2202 6.62079C55.2202 6.6569 55.2202 6.693 55.2202 6.73572Z" fill="#00904C"/>
<path fill-rule="evenodd" clip-rule="evenodd" d="M42.4179 2.06639C42.4105 2.06675 42.4033 2.06718 42.396 2.06754C42.1651 2.815 41.934 3.56254 41.7009 4.31677C42.1734 4.31677 42.63 4.31677 43.0987 4.31677C42.8698 3.56038 42.6438 2.81335 42.4179 2.06639ZM45.8855 6.74213C45.8147 6.74213 45.7596 6.74213 45.7046 6.74213C45.1162 6.7422 44.528 6.74069 43.9397 6.74407C43.8589 6.74457 43.8207 6.72314 43.7979 6.64245C43.716 6.3511 43.6248 6.06234 43.5403 5.77171C43.5232 5.71338 43.4998 5.69094 43.4336 5.69094C42.7469 5.6908 42.0604 5.68785 41.3738 5.6808C41.2956 5.67994 41.2681 5.70813 41.2477 5.77653C41.1592 6.07572 41.0645 6.3731 40.9757 6.67222C40.9609 6.72156 40.9404 6.74277 40.8879 6.74263C40.2566 6.74119 39.6252 6.74133 38.9938 6.74076C38.9848 6.74076 38.9759 6.73709 38.9535 6.73227C38.9681 6.68632 38.9799 6.64093 38.9966 6.59735C39.581 5.06402 40.1658 3.53075 40.7507 1.99763C40.9407 1.49988 41.1322 1.00276 41.3196 0.504214C41.3438 0.440062 41.3749 0.417623 41.4449 0.41791C42.1039 0.420859 42.763 0.420859 43.4222 0.418054C43.4922 0.417767 43.5242 0.439558 43.5484 0.504286C44.1478 2.10659 44.7493 3.70818 45.3505 5.30984C45.5194 5.7597 45.6886 6.20949 45.8575 6.65935C45.8659 6.68157 45.8727 6.7043 45.8855 6.74213Z" fill="#00904C"/>
<path fill-rule="evenodd" clip-rule="evenodd" d="M30.0291 4.14655C30.5913 4.31003 31.1566 4.47436 31.7364 4.64295C31.7129 4.72652 31.6939 4.80541 31.6687 4.88237C31.4307 5.61401 30.9967 6.17966 30.2767 6.49863C29.9202 6.65656 29.5411 6.71496 29.1542 6.73186C28.6576 6.75351 28.1652 6.72805 27.6767 6.62369C26.9613 6.47079 26.4312 6.06416 26.0329 5.46643C25.7393 5.02599 25.6007 4.53607 25.554 4.01544C25.5089 3.511 25.526 3.00928 25.6534 2.51771C25.9245 1.46983 26.5938 0.805509 27.6454 0.546812C28.4731 0.343135 29.3053 0.350902 30.1219 0.618445C30.6895 0.804358 31.1011 1.18568 31.3944 1.69538C31.4904 1.86209 31.5614 2.04304 31.6425 2.21816C31.6562 2.24743 31.6627 2.28001 31.6749 2.31856C31.3917 2.3789 31.1188 2.43752 30.8458 2.49498C30.5723 2.55259 30.2975 2.60538 30.025 2.66845C29.952 2.68535 29.9276 2.66479 29.9061 2.6015C29.7701 2.20054 29.4958 1.94695 29.0806 1.85159C28.4114 1.69796 27.7973 2.0444 27.6167 2.70369C27.4491 3.31581 27.4606 3.93921 27.6313 4.54873C27.7678 5.0357 28.1306 5.29598 28.6378 5.32072C28.867 5.33194 29.0932 5.31626 29.3074 5.22097C29.5838 5.09791 29.7457 4.87043 29.8618 4.60655C29.9255 4.46149 29.9708 4.30837 30.0291 4.14655Z" fill="#DA2128"/>
<path fill-rule="evenodd" clip-rule="evenodd" d="M21.5115 2.87587C21.5115 3.31437 21.5115 3.73014 21.5115 4.15698C21.4695 4.15698 21.4333 4.15698 21.3973 4.15698C20.6457 4.1559 19.8942 4.15605 19.1428 4.15209C19.0635 4.15173 19.0378 4.16921 19.0382 4.25285C19.0415 5.0444 19.0384 5.83595 19.0421 6.62743C19.0426 6.72107 19.0171 6.74624 18.9236 6.74553C18.3415 6.74135 17.7594 6.74164 17.1772 6.74545C17.0868 6.74603 17.0563 6.72589 17.0564 6.62952C17.0591 4.59238 17.0583 2.55525 17.0585 0.518115C17.0585 0.488197 17.0625 0.458206 17.065 0.423828C18.6931 0.423828 20.3145 0.423828 21.942 0.423828C21.942 0.875126 21.942 1.32096 21.942 1.77492C20.9757 1.77492 20.016 1.77492 19.048 1.77492C19.048 2.14221 19.048 2.50145 19.048 2.87587C19.8689 2.87587 20.6866 2.87587 21.5115 2.87587Z" fill="#DA2128"/>
<path fill-rule="evenodd" clip-rule="evenodd" d="M22.8063 0.422974C23.4669 0.422974 24.1154 0.422974 24.7694 0.422974C24.7694 2.52735 24.7694 4.62699 24.7694 6.73503C24.117 6.73503 23.4641 6.73503 22.8063 6.73503C22.8063 4.62979 22.8063 2.53059 22.8063 0.422974Z" fill="#DA2128"/>
<path fill-rule="evenodd" clip-rule="evenodd" d="M16.0637 0.426331C16.0637 2.52949 16.0637 4.62912 16.0637 6.73703C16.0281 6.73933 15.9952 6.74335 15.9622 6.74335C15.3741 6.74364 14.7859 6.7417 14.1977 6.74544C14.1104 6.74602 14.09 6.71804 14.0901 6.63569C14.092 4.59906 14.0917 2.56236 14.0917 0.525724C14.0917 0.495302 14.0917 0.46488 14.0917 0.426331C14.752 0.426331 15.4053 0.426331 16.0637 0.426331Z" fill="#DA2128"/>
<mask id="mask1_2164_189" style="mask-type:luminance" maskUnits="userSpaceOnUse" x="14" y="8" width="46" height="1">
<path d="M14.0846 8.0639H60V8.49844H14.0846V8.0639Z" fill="white"/>
</mask>
<g mask="url(#mask1_2164_189)">
<path fill-rule="evenodd" clip-rule="evenodd" d="M60.0006 8.49886H14.0907V8.06842H60.0006V8.49886Z" fill="#00904C"/>
</g>
<mask id="mask2_2164_189" style="mask-type:luminance" maskUnits="userSpaceOnUse" x="14" y="7" width="46" height="1">
<path d="M14.0846 7.62201H60V7.87977H14.0846V7.62201Z" fill="white"/>
</mask>
<g mask="url(#mask2_2164_189)">
<path fill-rule="evenodd" clip-rule="evenodd" d="M60.0006 7.8752H14.0907V7.62384H60.0006V7.8752Z" fill="#DA2128"/>
</g>
</svg>
