<svg width="9" height="13" viewBox="0 0 9 13" fill="none" xmlns="http://www.w3.org/2000/svg">
<path d="M9 3.16667V9.83333C8.99918 10.6729 8.74155 11.4777 8.2836 12.0713C7.82565 12.665 7.20478 12.9989 6.55714 13H4.5C4.3977 13 4.29959 12.9473 4.22726 12.8536C4.15492 12.7598 4.11429 12.6326 4.11429 12.5C4.11429 12.3674 4.15492 12.2402 4.22726 12.1464C4.29959 12.0527 4.3977 12 4.5 12H6.55714C7.00027 11.9993 7.42508 11.7708 7.73842 11.3646C8.05176 10.9584 8.22803 10.4078 8.22857 9.83333V3.16667C8.22803 2.59225 8.05176 2.04156 7.73842 1.63538C7.42508 1.22921 7.00027 1.00071 6.55714 1H4.5C4.3977 1 4.29959 0.947322 4.22726 0.853553C4.15492 0.759785 4.11429 0.632608 4.11429 0.5C4.11429 0.367392 4.15492 0.240215 4.22726 0.146447C4.29959 0.0526784 4.3977 0 4.5 0H6.55714C7.20478 0.00105845 7.82565 0.335028 8.2836 0.928664C8.74155 1.5223 8.99918 2.32714 9 3.16667ZM5.80114 6.14667L3.744 3.48C3.67122 3.38896 3.57377 3.33863 3.47264 3.33983C3.3715 3.34103 3.27478 3.39367 3.2033 3.48642C3.13182 3.57917 3.0913 3.7046 3.09047 3.8357C3.08964 3.9668 3.12856 4.09308 3.19886 4.18733L4.5972 6H0.385714C0.283416 6 0.185309 6.05268 0.112973 6.14645C0.0406376 6.24022 0 6.36739 0 6.5C0 6.63261 0.0406376 6.75979 0.112973 6.85355C0.185309 6.94732 0.283416 7 0.385714 7H4.5972L3.19886 8.81333C3.12856 8.90759 3.08964 9.03387 3.09047 9.16497C3.0913 9.29607 3.13182 9.4215 3.2033 9.51425C3.27478 9.607 3.3715 9.65964 3.47264 9.66084C3.57377 9.66204 3.67122 9.6117 3.744 9.52067L5.80114 6.854C5.83699 6.80757 5.86542 6.75243 5.88482 6.69175C5.90422 6.63107 5.9142 6.56602 5.9142 6.50033C5.9142 6.43465 5.90422 6.3696 5.88482 6.30892C5.86542 6.24823 5.83699 6.1931 5.80114 6.14667Z" fill="white"/>
</svg>
