<svg width="14" height="24" viewBox="0 0 14 24" fill="none" xmlns="http://www.w3.org/2000/svg">
<path d="M12.0366 0.388916H1.92523C1.06609 0.388916 0.369629 1.08538 0.369629 1.94451V21.3895C0.369629 22.2486 1.06609 22.9451 1.92523 22.9451H12.0366C12.8958 22.9451 13.5922 22.2486 13.5922 21.3895V1.94451C13.5922 1.08538 12.8958 0.388916 12.0366 0.388916Z" fill="#646492"/>
<path d="M3.88932 5.05569H2.33372C2.11894 5.05569 1.94482 5.22981 1.94482 5.44459V7.00019C1.94482 7.21498 2.11894 7.38909 2.33372 7.38909H3.88932C4.10411 7.38909 4.27822 7.21498 4.27822 7.00019V5.44459C4.27822 5.22981 4.10411 5.05569 3.88932 5.05569Z" fill="#D3DFE8"/>
<path d="M7.77799 5.05569H6.2224C6.00761 5.05569 5.8335 5.22981 5.8335 5.44459V7.00019C5.8335 7.21498 6.00761 7.38909 6.2224 7.38909H7.77799C7.99278 7.38909 8.16689 7.21498 8.16689 7.00019V5.44459C8.16689 5.22981 7.99278 5.05569 7.77799 5.05569Z" fill="#D3DFE8"/>
<path d="M11.6672 5.05569H10.1116C9.89677 5.05569 9.72266 5.22981 9.72266 5.44459V7.00019C9.72266 7.21498 9.89677 7.38909 10.1116 7.38909H11.6672C11.8819 7.38909 12.0561 7.21498 12.0561 7.00019V5.44459C12.0561 5.22981 11.8819 5.05569 11.6672 5.05569Z" fill="#D3DFE8"/>
<path d="M3.88932 9.3336H2.33372C2.11894 9.3336 1.94482 9.50772 1.94482 9.7225V11.2781C1.94482 11.4929 2.11894 11.667 2.33372 11.667H3.88932C4.10411 11.667 4.27822 11.4929 4.27822 11.2781V9.7225C4.27822 9.50772 4.10411 9.3336 3.88932 9.3336Z" fill="#B0B5F1"/>
<path d="M7.77799 9.3336H6.2224C6.00761 9.3336 5.8335 9.50772 5.8335 9.7225V11.2781C5.8335 11.4929 6.00761 11.667 6.2224 11.667H7.77799C7.99278 11.667 8.16689 11.4929 8.16689 11.2781V9.7225C8.16689 9.50772 7.99278 9.3336 7.77799 9.3336Z" fill="#D3DFE8"/>
<path d="M11.6672 9.3336H10.1116C9.89677 9.3336 9.72266 9.50772 9.72266 9.7225V11.2781C9.72266 11.4929 9.89677 11.667 10.1116 11.667H11.6672C11.8819 11.667 12.0561 11.4929 12.0561 11.2781V9.7225C12.0561 9.50772 11.8819 9.3336 11.6672 9.3336Z" fill="#B0B5F1"/>
<path d="M3.88932 13.6115H2.33372C2.11894 13.6115 1.94482 13.7856 1.94482 14.0004V15.556C1.94482 15.7708 2.11894 15.9449 2.33372 15.9449H3.88932C4.10411 15.9449 4.27822 15.7708 4.27822 15.556V14.0004C4.27822 13.7856 4.10411 13.6115 3.88932 13.6115Z" fill="#D3DFE8"/>
<path d="M7.77799 13.6115H6.2224C6.00761 13.6115 5.8335 13.7856 5.8335 14.0004V15.556C5.8335 15.7708 6.00761 15.9449 6.2224 15.9449H7.77799C7.99278 15.9449 8.16689 15.7708 8.16689 15.556V14.0004C8.16689 13.7856 7.99278 13.6115 7.77799 13.6115Z" fill="#D3DFE8"/>
<path d="M9.70312 21.7784H4.25853C4.15539 21.7784 4.05647 21.7374 3.98353 21.6645C3.9106 21.5915 3.86963 21.4926 3.86963 21.3895C3.86963 21.2863 3.9106 21.1874 3.98353 21.1145C4.05647 21.0416 4.15539 21.0006 4.25853 21.0006H9.70312C9.80627 21.0006 9.90519 21.0416 9.97812 21.1145C10.0511 21.1874 10.092 21.2863 10.092 21.3895C10.092 21.4926 10.0511 21.5915 9.97812 21.6645C9.90519 21.7374 9.80627 21.7784 9.70312 21.7784Z" fill="#17172B"/>
<path d="M12.0559 23.334H1.9445C1.42897 23.3334 0.934743 23.1283 0.570212 22.7638C0.205682 22.3992 0.000617517 21.905 0 21.3895V1.9445C0.000617517 1.42897 0.205682 0.934743 0.570212 0.570212C0.934743 0.205682 1.42897 0.000617517 1.9445 0L12.0559 0C12.5714 0.000617517 13.0656 0.205682 13.4302 0.570212C13.7947 0.934743 13.9998 1.42897 14.0004 1.9445V21.3895C13.9998 21.905 13.7947 22.3992 13.4302 22.7638C13.0656 23.1283 12.5714 23.3334 12.0559 23.334ZM1.9445 0.777799C1.63507 0.777799 1.33832 0.900719 1.11952 1.11952C0.900719 1.33832 0.777799 1.63507 0.777799 1.9445V21.3895C0.777799 21.6989 0.900719 21.9957 1.11952 22.2145C1.33832 22.4333 1.63507 22.5562 1.9445 22.5562H12.0559C12.3653 22.5562 12.6621 22.4333 12.8809 22.2145C13.0997 21.9957 13.2226 21.6989 13.2226 21.3895V1.9445C13.2226 1.63507 13.0997 1.33832 12.8809 1.11952C12.6621 0.900719 12.3653 0.777799 12.0559 0.777799H1.9445Z" fill="#B0B5F1"/>
<rect x="5.42969" y="1.34619" width="3.36548" height="0.897461" rx="0.44873" fill="#D9D9D9"/>
</svg>
