<svg width="87" height="40" viewBox="0 0 87 40" fill="none" xmlns="http://www.w3.org/2000/svg">
<path d="M58.0237 8.7761C57.0704 8.73692 56.1823 9.06341 55.3791 9.74904C54.5825 10.4281 54.0928 11.264 53.923 12.2173C53.7597 13.1511 53.9426 13.9739 54.4715 14.6595C55.0069 15.3451 55.7383 15.7108 56.659 15.7434C56.6982 15.7434 56.7308 15.7434 56.77 15.7434C57.5536 15.7369 58.311 15.4888 58.9379 15.0252L58.8922 15.2994C58.8661 15.4365 58.964 15.5737 59.1011 15.5998C59.1142 15.5998 59.1338 15.6063 59.1469 15.6063H59.9696C60.0937 15.6063 60.2047 15.5149 60.2243 15.3908L60.7663 12.3022C60.9622 11.375 60.7858 10.5522 60.2439 9.86005C59.7084 9.17442 58.9575 8.80875 58.0237 8.7761ZM58.52 13.7845C57.9976 14.2481 57.4491 14.4505 56.8353 14.4309C56.326 14.4244 55.8493 14.1763 55.5554 13.7584C55.242 13.3274 55.1441 12.8377 55.2551 12.25C55.3661 11.6492 55.6926 11.1073 56.1692 10.722C56.6198 10.3171 57.201 10.0886 57.8017 10.0886C58.3502 10.0886 58.7747 10.2845 59.0946 10.6828C59.4146 11.0877 59.5321 11.5709 59.4407 12.152C59.3493 12.7919 59.0228 13.3731 58.52 13.7845Z" fill="#182229"/>
<path d="M75.9222 8.7761C74.9753 8.73692 74.0808 9.06341 73.2776 9.74904C72.4809 10.4281 71.9912 11.264 71.8214 12.2173C71.6582 13.1511 71.841 13.9739 72.3699 14.6595C72.9054 15.3451 73.6367 15.7108 74.5574 15.7434C74.5966 15.7434 74.6293 15.7434 74.6684 15.7434C75.452 15.7369 76.2095 15.4888 76.8363 15.0252L76.7906 15.2994C76.7645 15.4365 76.8625 15.5737 76.9996 15.5998C77.0126 15.5998 77.0322 15.6063 77.0453 15.6063H77.8681C77.9921 15.6063 78.1031 15.5149 78.1227 15.3908L78.6647 12.3022C78.8606 11.375 78.6843 10.5522 78.1423 9.86005C77.6003 9.17442 76.8559 8.80875 75.9222 8.7761ZM76.4184 13.7845C75.896 14.2481 75.3475 14.4505 74.7337 14.4309C74.2244 14.4244 73.7477 14.1763 73.4539 13.7584C73.1405 13.3274 73.0425 12.8377 73.1535 12.25C73.2645 11.6492 73.591 11.1073 74.0677 10.722C74.5182 10.3171 75.0994 10.0886 75.7002 10.0886C76.2487 10.0886 76.6731 10.2845 76.9931 10.6828C77.313 11.0877 77.4306 11.5709 77.3391 12.152C77.2477 12.7919 76.9147 13.3731 76.4184 13.7845Z" fill="#182229"/>
<path d="M85.5078 9.86657C84.9723 9.1744 84.2345 8.80873 83.3007 8.77608C82.3604 8.74343 81.4723 9.07646 80.6692 9.76209C79.8725 10.4412 79.3828 11.277 79.213 12.2304C79.0498 13.1641 79.2326 13.9869 79.7615 14.6725C80.2904 15.3582 81.0349 15.7238 81.9621 15.7434C82.0013 15.7434 82.0404 15.7434 82.0796 15.7434C82.9807 15.7434 83.8231 15.4104 84.5936 14.7574C85.3968 14.0783 85.8865 13.249 86.0563 12.3087C86.2261 11.375 86.0367 10.5522 85.5078 9.86657ZM82.1253 14.4309C81.616 14.4375 81.1393 14.1893 80.8455 13.7714C80.5321 13.3404 80.4341 12.8442 80.5516 12.2565C80.6627 11.6492 80.9891 11.1072 81.4658 10.7154C81.9033 10.3106 82.4779 10.0886 83.0722 10.0886C83.0787 10.0886 83.0917 10.0886 83.0983 10.0886C83.6468 10.0886 84.0712 10.2845 84.3847 10.6828C84.7046 11.0942 84.8222 11.5774 84.7373 12.1585C84.6393 12.7854 84.339 13.3143 83.81 13.7845C83.2877 14.2546 82.7391 14.4636 82.1253 14.4309Z" fill="#182229"/>
<path d="M50.5735 8.78914C49.6332 8.76302 48.7451 9.08951 47.942 9.77515C47.1388 10.4542 46.6491 11.2835 46.4793 12.2238L45.6761 16.7882C45.65 16.9253 45.7479 17.0624 45.8851 17.0886C45.8981 17.0886 45.9177 17.0951 45.9308 17.0951H46.7339C46.858 17.0951 46.969 17.0037 46.9886 16.8796L47.3216 14.9925C47.8244 15.4757 48.4643 15.7304 49.2414 15.763C50.1817 15.7957 51.0698 15.4626 51.8729 14.777C52.6696 14.0979 53.1593 13.2621 53.3291 12.3087C53.4923 11.375 53.3095 10.5522 52.7806 9.86656C52.2451 9.1744 51.5007 8.80873 50.5735 8.78914ZM49.4242 14.444C48.8627 14.444 48.4382 14.2481 48.1183 13.8498C47.7918 13.4384 47.6808 12.9617 47.7722 12.374C47.8701 11.7472 48.177 11.2182 48.7059 10.7481C49.1957 10.3171 49.705 10.1016 50.2666 10.1016C50.3058 10.1016 50.3515 10.1016 50.3906 10.1082C50.9 10.1016 51.3832 10.3498 51.677 10.7677C51.9905 11.1987 52.0949 11.6949 51.9839 12.2761C51.8664 12.8833 51.5334 13.4253 51.0567 13.8106C50.5539 14.235 50.0185 14.444 49.4242 14.444Z" fill="#182229"/>
<path d="M68.7133 8.82833C68.1387 8.85445 67.5902 9.05034 67.1266 9.38336L67.4139 7.75743C67.44 7.62031 67.3421 7.48318 67.2049 7.45706C67.1919 7.45706 67.1723 7.45053 67.1592 7.45053H66.3365C66.2124 7.45053 66.1014 7.54195 66.0818 7.66602L64.7367 15.2994C64.7105 15.4365 64.8085 15.5737 64.9456 15.5998C64.9587 15.5998 64.9783 15.6063 64.9913 15.6063H65.8141C65.9381 15.6063 66.0491 15.5149 66.0687 15.3908L66.7152 11.7341C66.787 11.277 67.0286 10.8722 67.3943 10.5849C67.7469 10.2845 68.1909 10.1212 68.6546 10.1147C69.0594 10.0886 69.4512 10.2584 69.7059 10.5718C69.9736 10.8852 70.0781 11.3031 69.9866 11.708L69.3532 15.2994C69.3271 15.4365 69.4251 15.5737 69.5622 15.5998C69.5753 15.5998 69.5949 15.6063 69.6079 15.6063H70.4307C70.5547 15.6063 70.6657 15.5149 70.6853 15.3908L71.3057 11.8908C71.4559 11.0224 71.2795 10.278 70.7702 9.67721C70.2544 9.07646 69.5687 8.78915 68.7133 8.82833Z" fill="#182229"/>
<path d="M63.3721 10.1996H64.5801C64.7042 10.1996 64.8152 10.1082 64.8348 9.98411L64.9719 9.21359C64.998 9.07646 64.9001 8.93933 64.7629 8.91321C64.7499 8.91321 64.7303 8.90668 64.7172 8.90668H63.5941L63.7965 7.7509C63.8226 7.61378 63.7247 7.47665 63.5876 7.45053C63.5745 7.45053 63.5549 7.444 63.5419 7.444H62.7191C62.595 7.444 62.484 7.53542 62.4644 7.65948L62.2424 8.90668H61.9094C61.7853 8.90668 61.6743 8.9981 61.6547 9.12217L61.5176 9.89269C61.4915 10.0298 61.5894 10.1669 61.7266 10.1931C61.7396 10.1931 61.7592 10.1996 61.7723 10.1996H62.0204L61.4327 13.5168C61.3152 14.1828 61.4131 14.7117 61.7331 15.0904C62.0922 15.5149 62.7191 15.7304 63.6006 15.7304C63.7247 15.7304 63.8357 15.639 63.8553 15.5149L63.9728 14.8358C63.9989 14.6987 63.901 14.5615 63.7639 14.5354C63.7508 14.5354 63.7312 14.5289 63.7182 14.5289C63.3198 14.5289 63.0456 14.444 62.9019 14.2677C62.7648 14.0979 62.7256 13.8302 62.7909 13.458L63.3721 10.1996Z" fill="#182229"/>
<path d="M86.0374 18.7472C85.9525 18.597 85.7958 18.5056 85.626 18.5056H84.0458C83.876 18.5056 83.7258 18.5904 83.6409 18.7341L78.8089 26.7789L77.0262 18.8778C76.9805 18.6623 76.7846 18.5056 76.5626 18.5056H74.9105C74.7669 18.5056 74.6298 18.5709 74.5383 18.6819C74.4469 18.7929 74.4143 18.9431 74.4469 19.0802L76.8172 29.9328L75.1979 32.7602C75.113 32.9104 75.113 33.0867 75.1979 33.2369C75.2827 33.3805 75.4395 33.4719 75.6092 33.4719H77.2678C77.4376 33.4719 77.5878 33.3805 77.6792 33.2369L86.0439 19.2173C86.1223 19.0802 86.1223 18.8973 86.0374 18.7472Z" fill="#182229"/>
<path d="M54.7067 18.251C52.9632 18.1922 51.3242 18.806 49.842 20.0728C48.3597 21.3331 47.452 22.8545 47.1451 24.6045L45.6759 32.93C45.6498 33.0671 45.689 33.2108 45.7804 33.3219C45.8718 33.4329 46.0024 33.4916 46.1461 33.4916H47.6218C47.8504 33.4916 48.0528 33.3284 48.092 33.0998L48.6862 29.7109C49.6134 30.5989 50.8018 31.0755 52.2319 31.1343C53.9753 31.1931 55.6078 30.5793 57.0901 29.3125C58.5658 28.0523 59.4735 26.5178 59.7804 24.7482C60.0873 23.0178 59.7477 21.5028 58.7682 20.2426C57.7953 18.9562 56.4306 18.2902 54.7067 18.251ZM54.1516 20.6736C54.23 20.6736 54.3018 20.6736 54.3802 20.6801C55.4054 20.7127 56.1824 21.1111 56.7505 21.9012C57.3317 22.6978 57.5145 23.612 57.3121 24.6894C57.0901 25.806 56.5285 26.7332 55.6013 27.5234C54.674 28.3135 53.688 28.6922 52.591 28.6922C51.5593 28.6922 50.7692 28.3331 50.1815 27.5887C49.5808 26.8312 49.3718 25.9431 49.5416 24.8657C49.7179 23.7099 50.286 22.7305 51.2589 21.862C52.16 21.0653 53.1069 20.6736 54.1516 20.6736Z" fill="#182229"/>
<path d="M68.4061 18.2313C66.6561 18.1595 65.0106 18.7667 63.5283 20.0335C62.0526 21.2938 61.1449 22.8283 60.838 24.5979C60.5311 26.3283 60.8772 27.8432 61.8501 29.1035C62.8361 30.3768 64.1944 31.0494 65.8921 31.1081C65.9639 31.1081 66.0292 31.1081 66.1011 31.1081C67.5246 31.1081 68.8697 30.6641 70.1104 29.7826L70.019 30.2854C69.9929 30.4225 70.032 30.5662 70.1234 30.6706C70.2149 30.7816 70.3455 30.8404 70.4891 30.8404H72.004C72.2326 30.8404 72.435 30.6772 72.4742 30.4486L73.4798 24.7546C73.8389 23.0307 73.519 21.5158 72.5199 20.2359C71.5143 18.9626 70.13 18.2835 68.4061 18.2313ZM69.3268 27.4775C68.3604 28.3264 67.3417 28.7182 66.2186 28.6725C65.2065 28.6268 64.436 28.2219 63.8613 27.4384C63.2736 26.6417 63.0973 25.7341 63.3128 24.6566C63.5218 23.54 64.0768 22.6193 65.0041 21.8292C65.9313 21.0456 66.9173 20.6604 68.0274 20.6604C69.046 20.6604 69.8231 21.0195 70.4108 21.7639C71.005 22.5149 71.2139 23.4029 71.0507 24.4803C70.8613 25.6361 70.2998 26.6221 69.3268 27.4775Z" fill="#182229"/>
<path d="M19.903 0C13.7518 0 8.25372 2.78824 4.59701 7.17629C5.25652 10.4804 6.20988 13.4254 7.4179 15.9524C7.00652 17.0102 6.71268 18.0942 6.55596 19.1063L5.59607 24.291C3.76772 22.0643 1.97854 19.1194 0.548507 15.2406C0.189365 16.736 0 18.2966 0 19.903C0 24.9179 1.85447 29.5018 4.91697 33.0018L6.36006 25.1725L7.44402 19.2565C7.56808 18.4468 7.79663 17.5979 8.09047 16.7556C8.12965 16.6446 8.1623 16.5401 8.20801 16.4225C8.26025 16.2789 8.32555 16.1352 8.37778 15.985C8.41696 15.8871 8.45614 15.7892 8.49532 15.6912C8.56062 15.5476 8.61939 15.4039 8.69122 15.2537C8.73693 15.1492 8.78916 15.0448 8.8414 14.9403C8.90017 14.8031 8.96547 14.666 9.0373 14.5354C9.10913 14.3918 9.19401 14.2481 9.27237 14.0979C9.32461 14.0065 9.37685 13.9086 9.42909 13.8237C11.3227 10.6241 14.6464 7.67909 19.9617 7.67909H19.9878C24.9701 7.68562 29.3386 10.6828 31.1277 15.3255C32.943 20.0466 31.6567 25.166 27.7779 28.6856C24.1539 31.9636 18.4337 32.5839 13.1968 30.2593C12.9879 30.1613 12.7593 30.0569 12.5308 29.9458L13.68 23.6576C14.3134 24.0755 14.9664 24.4412 15.639 24.7416C18.6949 26.0998 21.8684 25.8908 23.7229 24.2061C25.7472 22.3778 26.4001 19.8703 25.486 17.4934C24.7873 15.6651 22.972 13.7192 19.9683 13.7192C19.9683 13.7192 19.9617 13.7192 19.9552 13.7192C14.5877 13.7192 13.4906 19.5569 13.3927 20.2229L13.3862 20.3013L12.8768 23.0699L11.6949 29.4953L10.2518 37.318C13.1119 38.8983 16.403 39.8059 19.8964 39.8059C30.8927 39.8059 39.7994 30.8927 39.7994 19.903C39.8059 8.9067 30.8927 0 19.903 0Z" fill="#3B82DE"/>
</svg>
