<svg width="36" height="25" viewBox="0 0 36 25" fill="none" xmlns="http://www.w3.org/2000/svg">
<path d="M32.252 1H3.748C2.23032 1 1 2.23032 1 3.748V21.252C1 22.7697 2.23032 24 3.748 24H32.252C33.7697 24 35 22.7697 35 21.252V3.748C35 2.23032 33.7697 1 32.252 1Z" fill="white" stroke="#F6F7F8"/>
<mask id="mask0_2103_97" style="mask-type:luminance" maskUnits="userSpaceOnUse" x="5" y="4" width="27" height="17">
<path d="M5.5 4.5H31.1V20.5H5.5V4.5Z" fill="white"/>
</mask>
<g mask="url(#mask0_2103_97)">
<path d="M10.5042 4.5H16.8822C17.7722 4.5 18.3262 5.226 18.1192 6.12L15.1492 18.868C14.9392 19.758 14.0492 20.485 13.1572 20.485H6.78017C5.89117 20.485 5.33617 19.758 5.54417 18.868L8.51417 6.12C8.72217 5.226 9.61317 4.5 10.5042 4.5Z" fill="#E21836"/>
<path d="M16.3512 4.5H23.6862C24.5762 4.5 24.1742 5.226 23.9662 6.119L20.9962 18.868C20.7882 19.758 20.8532 20.484 19.9612 20.484H12.6272C11.7342 20.484 11.1822 19.758 11.3922 18.867L14.3612 6.12C14.5702 5.226 15.4612 4.5 16.3512 4.5Z" fill="#00447C"/>
<path d="M23.3952 4.5H29.7732C30.6642 4.5 31.2182 5.226 31.0092 6.119L28.0392 18.868C27.8302 19.758 26.9392 20.484 26.0472 20.484H19.6722C18.7802 20.484 18.2272 19.758 18.4362 18.867L21.4052 6.12C21.6122 5.226 22.5032 4.5 23.3952 4.5Z" fill="#007B84"/>
<path d="M12.1701 8.586C11.5141 8.592 11.3201 8.586 11.2581 8.571C11.2351 8.684 10.7921 10.726 10.7911 10.727C10.6961 11.14 10.6261 11.435 10.3911 11.625C10.2596 11.7356 10.0919 11.794 9.92009 11.789C9.63009 11.789 9.46009 11.644 9.43109 11.37L9.42609 11.276L9.51409 10.72C9.51409 10.72 9.97909 8.86 10.0621 8.613L10.0691 8.586C9.16509 8.593 9.00409 8.586 8.99309 8.571C8.98709 8.591 8.96509 8.706 8.96509 8.706L8.49109 10.803L8.45009 10.981L8.37109 11.563C8.37109 11.735 8.40509 11.876 8.47209 11.995C8.68909 12.373 9.30509 12.429 9.65409 12.429C10.1031 12.429 10.5241 12.334 10.8091 12.159C11.3031 11.868 11.4331 11.411 11.5491 11.005L11.6021 10.797C11.6021 10.797 12.0801 8.865 12.1621 8.613C12.1641 8.599 12.1661 8.593 12.1701 8.586ZM13.7981 10.144C13.6831 10.144 13.4721 10.172 13.2831 10.265C13.2131 10.3 13.1491 10.341 13.0801 10.382L13.1421 10.158L13.1081 10.121C12.7071 10.202 12.6171 10.213 12.2461 10.265L12.2151 10.285C12.1721 10.643 12.1331 10.911 11.9741 11.613L11.7871 12.391L11.8041 12.424C12.1841 12.404 12.2991 12.404 12.6301 12.409L12.6561 12.38C12.6981 12.165 12.7041 12.115 12.7961 11.68C12.8401 11.473 12.9321 11.02 12.9761 10.858C13.0504 10.8157 13.1329 10.7898 13.2181 10.782C13.4031 10.782 13.3811 10.944 13.3741 11.008C13.3382 11.2649 13.2898 11.5198 13.2291 11.772L13.1831 11.967C13.1498 12.111 13.1164 12.2537 13.0831 12.395L13.0971 12.424C13.4721 12.404 13.5871 12.404 13.9061 12.409L13.9441 12.38C14.0011 12.044 14.0181 11.955 14.1211 11.466L14.1731 11.241C14.2731 10.801 14.3231 10.579 14.2471 10.397C14.1671 10.193 13.9751 10.144 13.7981 10.144ZM15.6171 10.604C15.4171 10.643 15.2901 10.668 15.1641 10.684C15.0391 10.704 14.9171 10.724 14.7241 10.75L14.7101 10.764L14.6951 10.774C14.6751 10.918 14.6611 11.042 14.6351 11.188C14.6121 11.338 14.5781 11.509 14.5211 11.755C14.5 11.864 14.4699 11.971 14.4311 12.075C14.4061 12.142 14.3791 12.205 14.3301 12.391L14.3411 12.408L14.3511 12.424C14.5311 12.415 14.6491 12.409 14.7701 12.408C14.8901 12.404 15.0151 12.408 15.2101 12.409L15.2261 12.395L15.2441 12.38C15.2721 12.213 15.2771 12.168 15.2941 12.087C15.3111 11.999 15.3401 11.879 15.4111 11.556C15.4464 11.4047 15.4821 11.252 15.5181 11.098L15.6291 10.64L15.6241 10.621L15.6171 10.604ZM15.6211 9.984C15.4401 9.877 15.1221 9.911 14.9091 10.059C14.6951 10.203 14.6711 10.409 14.8521 10.517C15.0291 10.62 15.3481 10.589 15.5601 10.441C15.7731 10.293 15.8001 10.09 15.6201 9.984M16.7141 12.457C17.0801 12.457 17.4561 12.357 17.7381 12.057C17.9551 11.814 18.0551 11.453 18.0901 11.304C18.2021 10.811 18.1141 10.581 18.0051 10.441C17.8381 10.227 17.5431 10.158 17.2361 10.158C17.0521 10.158 16.6141 10.177 16.2721 10.492C16.0261 10.72 15.9121 11.029 15.8431 11.325C15.7741 11.627 15.6951 12.171 16.1941 12.373C16.3491 12.439 16.5711 12.457 16.7141 12.457ZM16.6861 11.347C16.7701 10.975 16.8701 10.661 17.1241 10.661C17.3241 10.661 17.3381 10.894 17.2491 11.269C17.2331 11.352 17.1611 11.661 17.0621 11.793C16.9931 11.89 16.9121 11.949 16.8221 11.949C16.7961 11.949 16.6361 11.949 16.6341 11.713C16.6373 11.5897 16.6548 11.4663 16.6861 11.347ZM19.0051 12.41L19.0331 12.381C19.0731 12.166 19.0811 12.116 19.1711 11.681C19.2151 11.474 19.3081 11.021 19.3521 10.859C19.4351 10.82 19.5151 10.783 19.5951 10.783C19.7791 10.783 19.7571 10.944 19.7491 11.009C19.7431 11.117 19.6751 11.469 19.6051 11.773L19.5611 11.968C19.5271 12.113 19.4911 12.253 19.4591 12.396L19.4731 12.425C19.8491 12.405 19.9591 12.405 20.2811 12.41L20.3191 12.381C20.3761 12.045 20.3911 11.955 20.4971 11.467L20.5471 11.242C20.6471 10.802 20.6991 10.58 20.6241 10.398C20.5421 10.194 20.3481 10.145 20.1741 10.145C19.9164 10.1491 19.6661 10.2322 19.4571 10.383L19.5151 10.159L19.4841 10.122C19.0831 10.203 18.9911 10.214 18.6201 10.266L18.5921 10.286C18.5471 10.644 18.5101 10.912 18.3511 11.614C18.2898 11.874 18.2274 12.1333 18.1641 12.392L18.1811 12.425C18.5611 12.405 18.6751 12.405 19.0051 12.41ZM21.7661 12.425L21.9321 11.625C21.9321 11.625 22.0521 11.125 22.0591 11.106C22.0591 11.106 22.0961 11.054 22.1341 11.033H22.1891C22.7111 11.033 23.3011 11.033 23.7631 10.693C24.0781 10.46 24.2931 10.116 24.3891 9.69699C24.4131 9.59499 24.4321 9.472 24.4321 9.35C24.4391 9.19305 24.3952 9.03804 24.3071 8.908C24.0711 8.578 23.6021 8.572 23.0601 8.569L22.7931 8.57199C22.0991 8.57999 21.8211 8.578 21.7071 8.564L21.6791 8.704L21.4311 9.858L20.8081 12.421C21.4141 12.413 21.6621 12.413 21.7661 12.425ZM22.2261 10.38L22.4901 9.23499L22.4981 9.17599L22.5021 9.13099L22.6071 9.142L23.1651 9.18999C23.3801 9.27299 23.4691 9.48799 23.4071 9.76799C23.3816 9.89003 23.3292 10.0049 23.2538 10.1041C23.1784 10.2034 23.0818 10.2847 22.9711 10.342C22.7961 10.43 22.5811 10.437 22.3591 10.437H22.2161L22.2261 10.38ZM23.8711 11.37C23.8011 11.668 23.7211 12.211 24.2191 12.405C24.3771 12.472 24.5191 12.492 24.6641 12.485C24.8161 12.477 24.9571 12.4 25.0881 12.29L25.0531 12.426L25.0751 12.456C25.4331 12.44 25.5451 12.44 25.9321 12.443L25.9671 12.416C26.0231 12.084 26.0771 11.761 26.2241 11.124C26.2954 10.82 26.3674 10.5167 26.4401 10.214L26.4291 10.18C26.0291 10.255 25.9221 10.27 25.5371 10.325L25.5071 10.349L25.4971 10.439C25.4322 10.3327 25.3331 10.2516 25.2161 10.209C25.0451 10.141 24.6431 10.228 24.2961 10.542C24.0541 10.767 23.9381 11.075 23.8711 11.37ZM24.7111 11.388C24.7971 11.022 24.8961 10.711 25.1511 10.711C25.3111 10.711 25.3971 10.861 25.3801 11.114L25.3331 11.319C25.3078 11.4283 25.2811 11.5367 25.2531 11.644C25.2303 11.7112 25.1987 11.7751 25.1591 11.834C25.0941 11.928 24.9381 11.985 24.8481 11.985C24.8221 11.985 24.6651 11.985 24.6591 11.753C24.6626 11.6297 24.6794 11.5072 24.7111 11.388ZM29.1021 10.178L29.0701 10.142C28.7955 10.2023 28.5182 10.2497 28.2391 10.284L28.2121 10.311L28.2081 10.328L28.2071 10.322C27.9361 10.947 27.9441 10.812 27.7231 11.304C27.7231 11.281 27.7231 11.267 27.7211 11.244L27.6661 10.177L27.6311 10.142C27.2161 10.222 27.2061 10.235 26.8231 10.284L26.7931 10.311C26.7898 10.3243 26.7878 10.3383 26.7871 10.353L26.7891 10.358C26.8371 10.603 26.8261 10.548 26.8741 10.935C26.8961 11.125 26.9261 11.315 26.9491 11.502C26.9861 11.815 27.0071 11.969 27.0541 12.447C26.7941 12.874 26.7341 13.036 26.4841 13.41L26.4861 13.414L26.3111 13.692C26.2911 13.721 26.2731 13.741 26.2471 13.749C26.2102 13.7621 26.1712 13.7679 26.1321 13.766H26.0351L25.8911 14.246L26.3861 14.255C26.6771 14.253 26.8601 14.117 26.9581 13.935L27.2701 13.401H27.2651L27.2981 13.363C27.5081 12.912 29.1011 10.177 29.1011 10.177M23.8711 16.485H23.6611L24.4391 13.912H24.6971L24.7791 13.647L24.7871 13.942C24.7771 14.124 24.9211 14.286 25.2971 14.259H25.7331L25.8831 13.764H25.7181C25.6248 13.764 25.5808 13.739 25.5861 13.689L25.5781 13.389H24.7721V13.39C24.5121 13.396 23.7321 13.415 23.5751 13.457C23.3851 13.507 23.1831 13.651 23.1831 13.651L23.2631 13.386H22.5081L22.3511 13.912L21.5621 16.525H21.4091L21.2591 17.016H22.7621L22.7121 17.18H23.4521L23.5011 17.016H23.7081L23.8711 16.485ZM23.2551 14.435C23.1351 14.469 22.9091 14.57 22.9091 14.57L23.1091 13.912H23.7091L23.5641 14.392C23.5641 14.392 23.3801 14.402 23.2551 14.435ZM23.2651 15.375C23.2651 15.375 23.0771 15.398 22.9531 15.426C22.8311 15.463 22.6031 15.58 22.6031 15.58L22.8091 14.895H23.4111L23.2651 15.375ZM22.9301 16.491H22.3281L22.5031 15.914H23.1021L22.9301 16.491ZM24.3771 14.895H25.2441L25.1191 15.299H24.2411L24.1091 15.739H24.8781L24.2961 16.559C24.2685 16.6037 24.2271 16.6381 24.1781 16.657C24.1303 16.684 24.0769 16.6994 24.0221 16.702H23.8091L23.6631 17.185H24.2201C24.5101 17.185 24.6801 17.053 24.8071 16.88L25.2071 16.334L25.2921 16.888C25.2992 16.9286 25.3159 16.9669 25.3408 16.9997C25.3657 17.0326 25.398 17.0591 25.4351 17.077C25.4911 17.105 25.5491 17.153 25.6301 17.16C25.7168 17.1633 25.7808 17.1653 25.8221 17.166H26.0961L26.2611 16.626H26.1531C26.0911 16.626 25.9841 16.616 25.9661 16.596C25.9481 16.573 25.9481 16.536 25.9381 16.481L25.8511 15.925H25.4951L25.6511 15.739H26.5281L26.6621 15.299H25.8511L25.9771 14.895H26.7871L26.9371 14.398H24.5251L24.3771 14.895ZM17.0591 16.604L17.2611 15.931H18.0921L18.2441 15.431H17.4121L17.5391 15.016H18.3521L18.5021 14.532H16.4701L16.3231 15.016H16.7851L16.6621 15.43H16.1981L16.0451 15.94H16.5071L16.2371 16.83C16.2011 16.947 16.2541 16.992 16.2881 17.047C16.3231 17.1 16.3581 17.136 16.4371 17.156C16.5191 17.174 16.5741 17.185 16.6501 17.185H17.5871L17.7541 16.63L17.3391 16.687C17.2591 16.687 17.0371 16.677 17.0611 16.604M17.1561 13.383L16.9461 13.763C16.9179 13.8248 16.8758 13.8792 16.8231 13.922C16.7904 13.9413 16.7278 13.9507 16.6351 13.95H16.5251L16.3781 14.438H16.7431C16.9191 14.438 17.0531 14.373 17.1181 14.341C17.1871 14.304 17.2051 14.325 17.2581 14.274L17.3821 14.167H18.5221L18.6731 13.66H17.8391L17.9841 13.383H17.1561ZM18.8391 16.613C18.8191 16.585 18.8331 16.536 18.8631 16.433L19.1741 15.403H20.2831C20.4431 15.4003 20.5611 15.397 20.6371 15.393C20.7309 15.3813 20.8214 15.3507 20.9031 15.303C20.9826 15.2618 21.0496 15.2 21.0971 15.124C21.1451 15.058 21.2221 14.914 21.2881 14.691L21.6801 13.386L20.5301 13.393C20.5301 13.393 20.1761 13.445 20.0201 13.503C19.8631 13.567 19.6381 13.746 19.6381 13.746L19.7421 13.389H19.0321L18.0371 16.687C18.0089 16.7777 17.9872 16.8702 17.9721 16.964C17.9701 17.024 18.0481 17.084 18.0991 17.129C18.1581 17.174 18.2461 17.166 18.3301 17.174C18.4201 17.18 18.5451 17.184 18.7201 17.184H19.2661L19.4331 16.619L18.9451 16.665C18.9246 16.6653 18.9043 16.6608 18.8858 16.6517C18.8674 16.6427 18.8514 16.6294 18.8391 16.613ZM19.3761 14.706H20.5401L20.4661 14.938C20.4561 14.943 20.4301 14.926 20.3121 14.94H19.3041L19.3761 14.706ZM19.6091 13.928H20.7831L20.6981 14.208C20.6981 14.208 20.1451 14.202 20.0561 14.218C19.6661 14.286 19.4391 14.494 19.4391 14.494L19.6091 13.928ZM20.4921 15.715C20.4856 15.7436 20.4689 15.7689 20.4451 15.786C20.4224 15.8007 20.3831 15.8073 20.3271 15.806H20.1611L20.1711 15.525H19.4811L19.4531 16.905C19.4511 17.005 19.4611 17.063 19.5341 17.109C19.6071 17.166 19.8321 17.174 20.1341 17.174H20.5661L20.7221 16.657L20.3461 16.677L20.2211 16.685C20.2041 16.678 20.1871 16.671 20.1691 16.653C20.1531 16.637 20.1271 16.647 20.1311 16.547L20.1341 16.193L20.5291 16.177C20.7421 16.177 20.8331 16.107 20.9111 16.041C20.9851 15.978 21.0091 15.905 21.0371 15.807L21.1031 15.493H20.5611L20.4921 15.715Z" fill="#FEFEFE"/>
</g>
</svg>
