<svg width="37" height="26" viewBox="0 0 37 26" fill="none" xmlns="http://www.w3.org/2000/svg">
<path d="M1 4.25C1 3.38805 1.34241 2.5614 1.9519 1.9519C2.5614 1.34241 3.38805 1 4.25 1L32.75 1C33.612 1 34.4386 1.34241 35.0481 1.9519C35.6576 2.5614 36 3.38805 36 4.25V21.75C36 22.612 35.6576 23.4386 35.0481 24.0481C34.4386 24.6576 33.612 25 32.75 25H4.25C3.38805 25 2.5614 24.6576 1.9519 24.0481C1.34241 23.4386 1 22.612 1 21.75V4.25Z" fill="white"/>
<path fill-rule="evenodd" clip-rule="evenodd" d="M11.75 17.568H9.414L7.66 10.869C7.577 10.561 7.4 10.289 7.14 10.16C6.46588 9.81859 5.74461 9.57963 5 9.451V9.193H8.764C9.284 9.193 9.674 9.581 9.738 10.03L10.648 14.863L12.983 9.193H15.255L11.75 17.568ZM16.553 17.568H14.347L16.164 9.193H18.371L16.553 17.568ZM21.226 11.513C21.291 11.063 21.68 10.804 22.135 10.804C22.8708 10.7377 23.6109 10.8714 24.277 11.191L24.667 9.387C24.0252 9.13512 23.3424 9.00392 22.653 9C20.511 9 18.953 10.16 18.953 11.77C18.953 12.995 20.057 13.638 20.836 14.025C21.679 14.412 22.004 14.67 21.939 15.055C21.939 15.635 21.289 15.893 20.641 15.893C19.862 15.893 19.083 15.7 18.37 15.377L17.98 17.182C18.76 17.503 19.602 17.632 20.382 17.632C22.783 17.696 24.276 16.537 24.276 14.798C24.276 12.608 21.226 12.479 21.226 11.513ZM32 17.568L30.248 9.193H28.366C27.976 9.193 27.586 9.451 27.456 9.837L24.212 17.568H26.484L26.937 16.344H29.728L29.988 17.568H32ZM28.69 11.448L29.339 14.605H27.522L28.69 11.448Z" fill="#224DBA"/>
<path d="M4.25 2H32.75V0H4.25V2ZM35 4.25V21.75H37V4.25H35ZM32.75 24H4.25V26H32.75V24ZM2 21.75V4.25H0V21.75H2ZM4.25 24C3.65326 24 3.08097 23.7629 2.65901 23.341C2.23705 22.919 2 22.3467 2 21.75H0C0 22.8772 0.447767 23.9582 1.2448 24.7552C2.04183 25.5522 3.12283 26 4.25 26V24ZM35 21.75C35 22.3467 34.7629 22.919 34.341 23.341C33.919 23.7629 33.3467 24 32.75 24V26C33.8772 26 34.9582 25.5522 35.7552 24.7552C36.5522 23.9582 37 22.8772 37 21.75H35ZM32.75 2C33.3467 2 33.919 2.23705 34.341 2.65901C34.7629 3.08097 35 3.65326 35 4.25H37C37 3.12283 36.5522 2.04183 35.7552 1.2448C34.9582 0.447767 33.8772 0 32.75 0V2ZM4.25 0C3.12283 0 2.04183 0.447767 1.2448 1.2448C0.447767 2.04183 0 3.12283 0 4.25H2C2 3.65326 2.23705 3.08097 2.65901 2.65901C3.08097 2.23705 3.65326 2 4.25 2V0Z" fill="#F6F7F8"/>
</svg>
