<svg width="36" height="25" viewBox="0 0 36 25" fill="none" xmlns="http://www.w3.org/2000/svg">
<path d="M32.252 1H3.748C2.23032 1 1 2.23032 1 3.748V21.252C1 22.7697 2.23032 24 3.748 24H32.252C33.7697 24 35 22.7697 35 21.252V3.748C35 2.23032 33.7697 1 32.252 1Z" fill="white" stroke="#F6F7F8"/>
<g clip-path="url(#clip0_2139_2130)">
<path d="M18 22C22.9706 22 27 17.9706 27 13C27 8.02944 22.9706 4 18 4C13.0294 4 9 8.02944 9 13C9 17.9706 13.0294 22 18 22Z" fill="#2C97DE"/>
<path fill-rule="evenodd" clip-rule="evenodd" d="M26.4271 16.1662C26.3904 16.1688 26.3524 16.1702 26.3131 16.1702H25.3358V15.7161H26.3091C26.4057 15.7161 26.4733 15.7034 26.5139 15.6637C26.5492 15.6309 26.5738 15.5833 26.5738 15.5255C26.5738 15.4638 26.5492 15.4149 26.512 15.3855C26.4752 15.3532 26.4218 15.3385 26.3337 15.3385C25.8585 15.3223 25.2657 15.3532 25.2657 14.6831C25.2657 14.3759 25.4607 14.0526 25.9918 14.0526H26.9389C26.9552 13.9131 26.9682 13.7726 26.978 13.6313H26.0632C25.7806 13.6313 25.5753 13.699 25.4299 13.8042V13.6313H24.0446C23.8231 13.6313 23.5631 13.6862 23.4401 13.8042V13.6313H20.9664V13.8042C20.7695 13.6622 20.4373 13.6313 20.284 13.6313H18.6523V13.8042C18.4966 13.6534 18.1502 13.6313 17.9391 13.6313H16.113L15.6951 14.0835L15.3037 13.6313H12.5758V16.5861H15.2524L15.683 16.1267L16.0886 16.5861L17.7384 16.5875V15.8925H17.9006C18.1195 15.8958 18.3777 15.887 18.6055 15.7886V16.586H19.9663V15.8159H20.0319C20.1157 15.8159 20.1239 15.8193 20.1239 15.9031V16.5859H24.2578C24.5202 16.5859 24.7946 16.5188 24.9465 16.3969V16.5859H26.2571C26.3172 16.4478 26.3739 16.3078 26.4271 16.1662ZM9 12.9442H9.86452L10.0595 12.4739H10.4959L10.6904 12.9442H12.3916V12.5846L12.5435 12.9457H13.4266L13.5785 12.5793V12.9442H17.8063L17.8044 12.1723H17.8862C17.9434 12.1742 17.9602 12.1795 17.9602 12.2741V12.9442H20.1468V12.7645C20.3232 12.859 20.5975 12.9442 20.9585 12.9442H21.8785L22.0753 12.4739H22.5118L22.7043 12.9442H24.4771V12.4975L24.7455 12.9442H26.1661V9.99139H24.7602V10.3401L24.5634 9.99139H23.1207V10.3401L22.94 9.99139H20.9914C20.6652 9.99139 20.3785 10.0369 20.1468 10.1638V9.99139H18.8021V10.1638C18.6548 10.033 18.4539 9.99139 18.2306 9.99139H13.3179L12.9882 10.754L12.6497 9.99139H11.1023V10.3401L10.9323 9.99139H9.61267L9.28604 10.7396C9.13842 11.3104 9.04539 11.903 9.01285 12.5118L9.91197 10.4112H10.6638L11.5245 12.4157V10.4112H12.3504L13.0127 11.8474L13.6211 10.4112H14.4636V12.5283H13.9449L13.943 10.8702L13.2092 12.5283H12.7649L12.0292 10.8687V12.5283H10.9999L10.8055 12.0561H9.75182L9.55539 12.5283H9.01198C9.00486 12.6661 9.00085 12.8048 9 12.9442ZM26.8749 14.5032H26.0775C25.9855 14.5032 25.9243 14.5066 25.8727 14.5414C25.8194 14.5757 25.7988 14.6266 25.7988 14.6938C25.7988 14.7737 25.8439 14.828 25.9095 14.8515C25.9629 14.8701 26.0202 14.8755 26.1045 14.8755L26.3788 14.8829C26.5484 14.8871 26.6834 14.9066 26.7885 14.9477C26.8209 14.8009 26.8497 14.6526 26.8749 14.5032ZM16.5313 12.5283H14.8408V10.4112H16.5313V10.8521H15.3469V11.2337H16.5029V11.6677H15.3469V12.0905H16.5313V12.5283ZM18.9148 10.9814C18.9148 11.3189 18.6896 11.4933 18.5583 11.5457C18.669 11.5878 18.7636 11.6623 18.8086 11.724C18.88 11.8293 18.8924 11.9233 18.8924 12.1124V12.5283H18.382L18.38 12.2613C18.38 12.1339 18.3922 11.9507 18.3002 11.8489C18.2262 11.7744 18.1135 11.7583 17.9313 11.7583H17.3881V12.5283H16.8821V10.4112H18.046C18.3046 10.4112 18.4952 10.418 18.6588 10.5126C18.8189 10.6072 18.9148 10.7452 18.9148 10.9814ZM19.7247 12.5283H19.2083V10.4112H19.7247V12.5283ZM25.715 12.5283H24.9979L24.0387 10.9393V12.5283H23.0081L22.8112 12.0561H21.7599L21.5689 12.5283H20.9767C20.7308 12.5283 20.4193 12.4739 20.243 12.2942C20.0651 12.1144 19.9726 11.8709 19.9726 11.4859C19.9726 11.1719 20.0279 10.8849 20.2454 10.6581C20.409 10.4891 20.6652 10.4112 21.0139 10.4112H21.5038V10.8648H21.0242C20.8395 10.8648 20.7352 10.8923 20.6348 10.9903C20.5485 11.0794 20.4893 11.2479 20.4893 11.4698C20.4893 11.6966 20.5344 11.8602 20.6285 11.967C20.7064 12.0508 20.8479 12.0762 20.9811 12.0762H21.2084L21.9216 10.4113H22.6799L23.5367 12.4138V10.4113H24.3072L25.1967 11.8857V10.4113H25.715V12.5283ZM24.9812 15.0533C25.0798 15.1553 25.1326 15.284 25.1326 15.502C25.1326 15.9575 24.848 16.1702 24.3376 16.1702H23.352V15.7161H24.3337C24.4296 15.7161 24.4977 15.7034 24.5404 15.6637C24.5752 15.6309 24.6001 15.5833 24.6001 15.5255C24.6001 15.4638 24.5731 15.4149 24.5384 15.3855C24.4997 15.3532 24.4463 15.3385 24.3582 15.3385C23.8849 15.3223 23.2923 15.3532 23.2923 14.6831C23.2923 14.3759 23.4852 14.0526 24.0158 14.0526H25.0303V14.5033H24.102C24.01 14.5033 23.9501 14.5068 23.8992 14.5416C23.8438 14.5758 23.8232 14.6267 23.8232 14.6939C23.8232 14.7738 23.8703 14.8281 23.934 14.8516C23.9874 14.8702 24.0447 14.8757 24.1309 14.8757L24.4033 14.883C24.678 14.8897 24.8666 14.9372 24.9812 15.0533ZM20.7205 15.1861C20.8332 15.2276 20.9253 15.3022 20.9684 15.3638C21.0399 15.4672 21.0502 15.5637 21.0523 15.7504V16.1702H20.5442V15.9052C20.5442 15.7778 20.5565 15.5892 20.4624 15.4907C20.3885 15.4149 20.2758 15.3967 20.0912 15.3967H19.5504V16.1702H19.0419V14.0525H20.2102C20.4664 14.0525 20.653 14.0638 20.8191 14.1525C20.9788 14.249 21.0792 14.3811 21.0792 14.6227C21.0792 14.9607 20.8537 15.1332 20.7205 15.1861ZM21.3598 14.0525H23.0488V14.4905H21.8638V14.8755H23.0199V15.3075H21.8638V15.7289L23.0488 15.7308V16.1702H21.3598V14.0525ZM18.8042 14.7502C18.8042 15.3384 18.3653 15.4599 17.923 15.4599H17.2916V16.1702H16.308L15.6849 15.4691L15.0373 16.1702H13.0328V14.0525H15.0681L15.6907 14.7467L16.3344 14.0525H17.9514C18.353 14.0525 18.8042 14.1637 18.8042 14.7502ZM20.4149 14.9225C20.3472 14.9627 20.2635 14.9661 20.165 14.9661H19.5503V14.4905H20.1734C20.2635 14.4905 20.3537 14.4924 20.4149 14.5288C20.4805 14.5631 20.5197 14.6287 20.5197 14.7193C20.5197 14.8099 20.4805 14.8829 20.4149 14.9225ZM17.9456 15.0298H17.2916V14.4905H17.9514C18.1341 14.4905 18.2609 14.565 18.2609 14.7502C18.2609 14.9333 18.14 15.0298 17.9456 15.0298ZM16.7876 15.9776L16.0106 15.115L16.7876 14.2798V15.9776ZM22.6387 11.6148L22.2885 10.7708L21.9402 11.6148H22.6387ZM14.7811 15.7289H13.5369V15.3075H14.6479V14.8755H13.5369V14.4905H14.8056L15.3591 15.1076L14.7811 15.7289ZM10.6228 11.6148L10.2764 10.7708L9.93202 11.6148H10.6228ZM18.2531 11.2787C18.1835 11.3209 18.1013 11.3223 18.0028 11.3223H17.388V10.8521H18.0111C18.0993 10.8521 18.1913 10.856 18.2511 10.8903C18.3168 10.9211 18.3574 10.9867 18.3574 11.0774C18.3574 11.1699 18.3187 11.2444 18.2531 11.2787Z" fill="white"/>
</g>
<defs>
<clipPath id="clip0_2139_2130">
<rect width="18" height="18" fill="white" transform="translate(9 4)"/>
</clipPath>
</defs>
</svg>
