<svg width="22" height="21" viewBox="0 0 22 21" fill="none" xmlns="http://www.w3.org/2000/svg">
<path d="M3.26562 8.07579H18.6442V18.3388H3.26562V8.07579Z" fill="#646492"/>
<path d="M18.6447 18.4667H3.26603C3.19542 18.4667 3.13818 18.4094 3.13818 18.3388V8.07581C3.13818 8.00521 3.19542 7.94797 3.26603 7.94797H18.6447C18.7153 7.94797 18.7725 8.00521 18.7725 8.07581V18.3388C18.7725 18.4094 18.7153 18.4667 18.6447 18.4667ZM3.39389 18.211H18.5168V8.20366H3.39389V18.211Z" fill="#09223C"/>
<path d="M17.9487 9.70219H19.6121V16.5679H17.9487V9.70219Z" fill="#E5F4FF"/>
<path d="M19.6125 16.6958H17.9491C17.8785 16.6958 17.8213 16.6385 17.8213 16.5679V9.70218C17.8213 9.63158 17.8785 9.57434 17.9491 9.57434H19.6125C19.6831 9.57434 19.7403 9.63158 19.7403 9.70218V16.5679C19.7403 16.6385 19.6831 16.6958 19.6125 16.6958ZM18.077 16.4401H19.4846V9.83003H18.077V16.4401Z" fill="#BBD8ED"/>
<path d="M18.4893 9.70219H19.0721V16.5679H18.4893V9.70219Z" fill="#E5F4FF"/>
<path d="M19.0725 16.6958H18.4897C18.4191 16.6958 18.3618 16.6385 18.3618 16.5679V9.70218C18.3618 9.63158 18.4191 9.57434 18.4897 9.57434H19.0725C19.1431 9.57434 19.2004 9.63158 19.2004 9.70218V16.5679C19.2004 16.6385 19.1431 16.6958 19.0725 16.6958ZM18.6175 16.4401H18.9447V9.83003H18.6175V16.4401Z" fill="#BBD8ED"/>
<path d="M13.4561 9.70219H15.1194V16.5679H13.4561V9.70219Z" fill="#E5F4FF"/>
<path d="M15.1193 16.6958H13.456C13.3854 16.6958 13.3281 16.6385 13.3281 16.5679V9.70218C13.3281 9.63158 13.3854 9.57434 13.456 9.57434H15.1193C15.1899 9.57434 15.2472 9.63158 15.2472 9.70218V16.5679C15.2472 16.6385 15.1899 16.6958 15.1193 16.6958ZM13.5838 16.4401H14.9915V9.83003H13.5838V16.4401Z" fill="#BBD8ED"/>
<path d="M13.9961 9.70219H14.5789V16.5679H13.9961V9.70219Z" fill="#E5F4FF"/>
<path d="M14.5789 16.6958H13.996C13.9254 16.6958 13.8682 16.6385 13.8682 16.5679V9.70218C13.8682 9.63158 13.9254 9.57434 13.996 9.57434H14.5789C14.6495 9.57434 14.7067 9.63158 14.7067 9.70218V16.5679C14.7067 16.6385 14.6495 16.6958 14.5789 16.6958ZM14.1239 16.4401H14.451V9.83003H14.1239V16.4401Z" fill="#BBD8ED"/>
<path d="M6.82715 9.70219H8.4905V16.5679H6.82715V9.70219Z" fill="#E5F4FF"/>
<path d="M8.49139 16.6958H6.82805C6.75744 16.6958 6.7002 16.6385 6.7002 16.5679V9.70218C6.7002 9.63158 6.75744 9.57434 6.82805 9.57434H8.49139C8.562 9.57434 8.61924 9.63158 8.61924 9.70218V16.5679C8.61924 16.6385 8.562 16.6958 8.49139 16.6958ZM6.9559 16.4401H8.36354V9.83003H6.9559V16.4401Z" fill="#BBD8ED"/>
<path d="M7.36768 9.70219H7.95052V16.5679H7.36768V9.70219Z" fill="#E5F4FF"/>
<path d="M7.95044 16.6958H7.3676C7.29699 16.6958 7.23975 16.6385 7.23975 16.5679V9.70218C7.23975 9.63158 7.29699 9.57434 7.3676 9.57434H7.95044C8.02105 9.57434 8.07829 9.63158 8.07829 9.70218V16.5679C8.07829 16.6385 8.02105 16.6958 7.95044 16.6958ZM7.49545 16.4401H7.82259V9.83003H7.49545V16.4401Z" fill="#BBD8ED"/>
<path d="M2.29785 9.70219H3.9612V16.5679H2.29785V9.70219Z" fill="#E5F4FF"/>
<path d="M3.96112 16.6958H2.29777C2.22716 16.6958 2.16992 16.6385 2.16992 16.5679V9.70218C2.16992 9.63158 2.22716 9.57434 2.29777 9.57434H3.96112C4.03173 9.57434 4.08897 9.63158 4.08897 9.70218V16.5679C4.08897 16.6385 4.03173 16.6958 3.96112 16.6958ZM2.42562 16.4401H3.83327V9.83003H2.42562V16.4401Z" fill="#BBD8ED"/>
<path d="M2.83789 9.70219H3.42074V16.5679H2.83789V9.70219Z" fill="#E5F4FF"/>
<path d="M3.42066 16.6958H2.83781C2.7672 16.6958 2.70996 16.6385 2.70996 16.5679V9.70218C2.70996 9.63158 2.7672 9.57434 2.83781 9.57434H3.42066C3.49127 9.57434 3.54851 9.63158 3.54851 9.70218V16.5679C3.54851 16.6385 3.49127 16.6958 3.42066 16.6958ZM2.96566 16.4401H3.29281V9.83003H2.96566V16.4401Z" fill="#BBD8ED"/>
<path d="M19.9142 9.11929H17.6474C17.5768 9.11929 17.5195 9.17653 17.5195 9.24714V10.0976C17.5195 10.2487 17.6424 10.3716 17.7935 10.3716H19.7681C19.9192 10.3716 20.0421 10.2487 20.0421 10.0976V9.24714C20.0421 9.17653 19.9848 9.11929 19.9142 9.11929Z" fill="#646492"/>
<path d="M19.7681 16.2059H17.7935C17.6424 16.2059 17.5195 16.3288 17.5195 16.4798V17.3204C17.5195 17.391 17.5768 17.4482 17.6474 17.4482H19.9142C19.9848 17.4482 20.0421 17.391 20.0421 17.3204V16.4798C20.0421 16.3288 19.9192 16.2059 19.7681 16.2059Z" fill="#646492"/>
<path d="M15.4215 9.11929H13.1547C13.0841 9.11929 13.0269 9.17653 13.0269 9.24714V10.0976C13.0269 10.2487 13.1498 10.3716 13.3008 10.3716H15.2754C15.4265 10.3716 15.5494 10.2487 15.5494 10.0976V9.24714C15.5494 9.17653 15.4922 9.11929 15.4215 9.11929Z" fill="#646492"/>
<path d="M15.2754 16.2059H13.3008C13.1498 16.2059 13.0269 16.3288 13.0269 16.4798V17.3204C13.0269 17.391 13.0841 17.4482 13.1547 17.4482H15.4215C15.4922 17.4482 15.5494 17.391 15.5494 17.3204V16.4798C15.5494 16.3288 15.4265 16.2059 15.2754 16.2059Z" fill="#646492"/>
<path d="M8.79264 9.11929H6.5258C6.45519 9.11929 6.39795 9.17653 6.39795 9.24714V10.0976C6.39795 10.2487 6.52085 10.3716 6.67192 10.3716H8.64653C8.79759 10.3716 8.92049 10.2487 8.92049 10.0976V9.24714C8.92049 9.17653 8.86325 9.11929 8.79264 9.11929Z" fill="#646492"/>
<path d="M8.64653 16.2059H6.67192C6.52085 16.2059 6.39795 16.3288 6.39795 16.4798V17.3204C6.39795 17.391 6.45519 17.4482 6.5258 17.4482H8.79264C8.86325 17.4482 8.92049 17.391 8.92049 17.3204V16.4798C8.92049 16.3288 8.79759 16.2059 8.64653 16.2059Z" fill="#646492"/>
<path d="M4.26286 9.11932H1.99601C1.9254 9.11932 1.86816 9.17656 1.86816 9.24717V10.0977C1.86816 10.2487 1.99106 10.3716 2.14213 10.3716H4.11674C4.2678 10.3716 4.39071 10.2487 4.39071 10.0977V9.24717C4.39071 9.17656 4.33347 9.11932 4.26286 9.11932Z" fill="#646492"/>
<path d="M4.11674 16.2059H2.14213C1.99106 16.2059 1.86816 16.3288 1.86816 16.4798V17.3204C1.86816 17.391 1.9254 17.4482 1.99601 17.4482H4.26286C4.33347 17.4482 4.39071 17.391 4.39071 17.3204V16.4798C4.39071 16.3288 4.2678 16.2059 4.11674 16.2059Z" fill="#646492"/>
<path d="M20.6627 17.1925H1.2476C1.09654 17.1925 0.973633 17.3154 0.973633 17.4665V18.3456C0.973633 18.4966 1.09654 18.6195 1.2476 18.6195H20.6627C20.8138 18.6195 20.9367 18.4966 20.9367 18.3456V17.4665C20.9367 17.3154 20.8138 17.1925 20.6627 17.1925Z" fill="#A9CBE0"/>
<path d="M20.8089 7.94797H1.10148C1.03087 7.94797 0.973633 8.00521 0.973633 8.07581V9.10106C0.973633 9.25211 1.09654 9.37501 1.2476 9.37501H20.6627C20.8138 9.37501 20.9367 9.25211 20.9367 9.10106V8.07581C20.9367 8.00521 20.8795 7.94797 20.8089 7.94797Z" fill="#B9D1ED"/>
<path d="M21.1078 18.1068H0.802287C0.651218 18.1068 0.52832 18.2297 0.52832 18.3808V20.0018C0.52832 20.0724 0.585561 20.1296 0.656171 20.1296H21.2539C21.3245 20.1296 21.3817 20.0724 21.3817 20.0018V18.3808C21.3817 18.2297 21.2588 18.1068 21.1078 18.1068Z" fill="#BED9ED"/>
<path d="M21.4228 19.0479H0.486369C0.3353 19.0479 0.212402 19.1708 0.212402 19.3218V20.0657C0.212402 20.1363 0.269643 20.1935 0.340253 20.1935H21.5689C21.6395 20.1935 21.6968 20.1363 21.6968 20.0657V19.3218C21.6968 19.1708 21.5739 19.0479 21.4228 19.0479Z" fill="#D4E8F4"/>
<path d="M21.7951 7.70704L11.1146 0.0513274C11.0191 -0.0171091 10.8908 -0.0171091 10.7954 0.0513274L0.114926 7.70704C0.0163205 7.77772 -0.0234083 7.89801 0.0137123 8.01352C0.0508329 8.12901 0.153216 8.20364 0.274543 8.20364H21.6354C21.7568 8.20364 21.8591 8.12901 21.8963 8.01352C21.9334 7.89801 21.8937 7.77772 21.7951 7.70704Z" fill="#D4E8F4"/>
<path d="M18.3789 6.66841L11.1142 1.48908C11.0193 1.42142 10.8917 1.42127 10.7967 1.4887L3.49549 6.66813C3.42255 6.71987 3.39179 6.81189 3.41894 6.89709C3.4461 6.9823 3.52443 7.03955 3.61387 7.03955H18.2602C18.3495 7.03955 18.4278 6.98239 18.455 6.89733C18.4823 6.81225 18.4517 6.72026 18.3789 6.66841Z" fill="#646492"/>
<path d="M15.6253 5.67605H14.4858C14.4843 5.67605 14.4825 5.67501 14.4811 5.67334C14.2203 5.36816 13.7484 5.10879 13.1163 4.92326C12.4838 4.73757 11.7365 4.63942 10.9552 4.63942C10.174 4.63942 9.42673 4.73757 8.79416 4.92326C8.16214 5.10879 7.69021 5.36816 7.42938 5.67334C7.42796 5.67501 7.42616 5.67605 7.42469 5.67605H6.2852C5.78197 5.67605 5.37256 6.08544 5.37256 6.58864V8.09873C5.37256 8.16933 5.4298 8.22657 5.50041 8.22657H16.4101C16.4807 8.22657 16.5379 8.16933 16.5379 8.09873V6.58865C16.5379 6.08544 16.1285 5.67605 15.6253 5.67605Z" fill="#E5F4FF"/>
<path d="M9.22253 6.73645C9.23562 6.7249 9.24817 6.71264 9.26015 6.69971C9.34927 6.60346 9.39835 6.47819 9.39835 6.34695C9.39835 6.0605 9.16529 5.82745 8.87883 5.82745H8.12199C8.08803 5.82745 8.05547 5.84097 8.03148 5.865C8.0075 5.88905 7.99406 5.92163 7.99414 5.95559L7.99589 6.73714V6.73715V6.73718L7.99763 7.51664C7.99779 7.58696 8.0547 7.64394 8.12502 7.6442L8.87867 7.64697H8.88062C9.01902 7.64697 9.14916 7.59322 9.24726 7.49549C9.34582 7.39729 9.40009 7.26659 9.40009 7.12747C9.40009 6.99586 9.35076 6.87032 9.26119 6.77397C9.24888 6.76074 9.23598 6.74822 9.22253 6.73645ZM8.87882 6.08313C9.02429 6.08313 9.14264 6.20148 9.14264 6.34695C9.14264 6.48175 9.03857 6.59617 8.90499 6.6093H8.2513L8.25012 6.08313H8.87882ZM9.06677 7.31436C9.01672 7.36422 8.95008 7.39151 8.8796 7.39128L8.25305 7.38897L8.25187 6.86499H8.90529C9.03967 6.87747 9.14439 6.99199 9.14439 7.12747C9.14439 7.19813 9.11683 7.2645 9.06677 7.31436Z" fill="#646492"/>
<path d="M12.2697 5.82746C12.1991 5.82746 12.1419 5.88469 12.1419 5.9553V7.10544L11.2995 5.88278C11.2678 5.83668 11.2097 5.81661 11.1563 5.83323C11.1028 5.84986 11.0664 5.89933 11.0664 5.95531V7.51637C11.0664 7.58698 11.1236 7.64422 11.1943 7.64422C11.2649 7.64422 11.3221 7.58698 11.3221 7.51637V6.36623L12.1644 7.58889C12.1888 7.62418 12.2285 7.64422 12.2697 7.64422C12.2824 7.64422 12.2952 7.64233 12.3077 7.63843C12.3612 7.6218 12.3976 7.57234 12.3976 7.51636V5.9553C12.3976 5.88469 12.3403 5.82746 12.2697 5.82746Z" fill="#646492"/>
<path d="M10.7406 7.01097C10.738 7.00163 10.7346 6.99269 10.7301 6.98432L10.2908 5.86882C10.2711 5.81879 10.2221 5.78645 10.1684 5.78787C10.1146 5.7893 10.0675 5.82423 10.0505 5.87524C10.0492 5.87903 10.0454 5.89056 9.6994 6.97333L9.68876 7.00665C9.68873 7.00673 9.68871 7.00681 9.68868 7.00688L9.53832 7.47746C9.51684 7.54472 9.55394 7.61665 9.62121 7.63814C9.68847 7.65964 9.76041 7.62252 9.7819 7.55527L9.90383 7.17365C9.93986 7.17387 9.98748 7.17399 10.051 7.17399C10.1585 7.17399 10.3114 7.17365 10.5295 7.17284L10.6834 7.56356C10.7032 7.61388 10.7514 7.6446 10.8024 7.6446C10.818 7.6446 10.8338 7.64173 10.8492 7.63567C10.9149 7.6098 10.9472 7.53557 10.9213 7.46988L10.7406 7.01097ZM9.98547 6.91818C10.0748 6.63873 10.1387 6.4387 10.1843 6.29621L10.4289 6.91746C10.274 6.91792 10.1061 6.91825 9.98547 6.91818Z" fill="#646492"/>
<path d="M13.8967 7.43895L13.2285 6.56095L13.7297 6.02389C13.7779 5.97227 13.7751 5.89137 13.7235 5.8432C13.6719 5.79503 13.591 5.79782 13.5428 5.84944L12.9697 6.46349L12.8568 6.5753V5.9553C12.8568 5.8847 12.7995 5.82746 12.7289 5.82746C12.6583 5.82746 12.6011 5.8847 12.6011 5.9553V7.51637C12.6011 7.58698 12.6583 7.64421 12.7289 7.64421C12.7995 7.64421 12.8568 7.58698 12.8568 7.51637V6.9351L13.0479 6.74587L13.6932 7.59379C13.7184 7.62685 13.7565 7.64422 13.7951 7.64422C13.822 7.64422 13.8493 7.63571 13.8724 7.6181C13.9286 7.57535 13.9394 7.49514 13.8967 7.43895Z" fill="#646492"/>
</svg>
