<svg width="47" height="47" viewBox="0 0 47 47" fill="none" xmlns="http://www.w3.org/2000/svg">
<mask id="mask0_2155_22" style="mask-type:luminance" maskUnits="userSpaceOnUse" x="0" y="0" width="47" height="47">
<path d="M47 0H0V47H47V0Z" fill="white"/>
</mask>
<g mask="url(#mask0_2155_22)">
<path fill-rule="evenodd" clip-rule="evenodd" d="M36.2442 14.9089C34.5089 14.355 32.7736 13.8012 31.0383 13.2473C30.8857 13.1986 30.8203 13.0191 30.905 12.883C30.917 12.8639 30.929 12.8449 30.9409 12.8257C31.0006 12.7302 31.1182 12.6882 31.2253 12.7232C32.9527 13.2887 34.6799 13.8542 36.4072 14.4198C36.5529 14.4674 36.6202 14.6358 36.5463 14.7702C36.5422 14.7776 36.5381 14.7851 36.5341 14.7924C36.4775 14.8957 36.3563 14.9448 36.2442 14.9089Z" fill="#C2C4C6"/>
<path fill-rule="evenodd" clip-rule="evenodd" d="M33.9246 15.2438C32.7763 14.8953 31.628 14.5468 30.4796 14.1981C30.3293 14.1525 30.2607 13.9797 30.3372 13.8425C30.348 13.823 30.3589 13.8036 30.3699 13.7842C30.4265 13.6834 30.5466 13.6365 30.6568 13.6708C31.8 14.027 32.9432 14.3833 34.0865 14.7395C34.231 14.7846 34.3015 14.9488 34.2327 15.0837C34.2267 15.0954 34.2207 15.1071 34.2149 15.1188C34.1608 15.2255 34.0389 15.2785 33.9246 15.2438Z" fill="#C2C4C6"/>
<path d="M2.75231 37.9245C1.94072 37.9245 1.34673 37.1592 1.54839 36.3731L6.00652 18.9818C6.21126 18.183 6.93025 17.6523 7.71853 17.6529L7.71838 13.566C7.71838 12.8689 8.28354 12.3037 8.9807 12.3037H40.4206V37.9246L2.75231 37.9245Z" fill="white"/>
<path d="M2.75231 37.9245C1.94072 37.9245 1.34673 37.1592 1.54839 36.3731L3.54134 18.9818C3.74608 18.183 4.46507 17.6523 5.25335 17.6529L9.05604 13.566C9.05604 12.8689 9.6212 12.3037 10.3184 12.3037H41.3184L44.0568 35.692C44.196 36.8806 43.2671 37.9246 42.0704 37.9246L2.75231 37.9245Z" fill="#6724F0"/>
<path d="M28.101 12.3034H29.5149L28.6321 8.63469C28.5425 8.26235 28.2094 8 27.8265 8H27.0653H19.7678H19.0067C18.6238 8 18.2907 8.26235 18.2012 8.63469L17.3182 12.3034H18.7321L19.3512 9.73121C19.3959 9.54509 19.5625 9.41387 19.7539 9.41387H27.0793C27.2707 9.41387 27.4372 9.54509 27.482 9.73121L28.101 12.3034Z" fill="#D0D4D9"/>
<path d="M39.3184 24.8734C43.3184 24.8734 43.8184 21.7593 43.3184 19.7593L41.976 12.8717C41.8844 12.402 41.473 12.063 40.9944 12.063H4.6252C4.04876 12.063 3.54555 12.4535 3.40241 13.0119L2.45538 19.5C1.7574 22.2229 3.81404 24.8734 6.6252 24.8734H39.3184Z" fill="url(#paint0_linear_2155_22)"/>
<path d="M27 23.5H19C18.4477 23.5 18 23.9477 18 24.5V26.5C18 27.0523 18.4477 27.5 19 27.5H27C27.5523 27.5 28 27.0523 28 26.5V24.5C28 23.9477 27.5523 23.5 27 23.5Z" fill="#D0D4D9"/>
</g>
<defs>
<linearGradient id="paint0_linear_2155_22" x1="2.31836" y1="12.063" x2="9.58826" y2="35.4212" gradientUnits="userSpaceOnUse">
<stop stop-color="white"/>
<stop offset="0.105769" stop-color="#524DDF"/>
</linearGradient>
</defs>
</svg>
