<svg width="34" height="24" viewBox="0 0 34 24" fill="none" xmlns="http://www.w3.org/2000/svg">
<path fill-rule="evenodd" clip-rule="evenodd" d="M1.5434e-05 3.25C-0.00104648 2.38945 0.33965 1.5637 0.94721 0.954265C1.55477 0.344829 2.37947 0.00159001 3.24002 0L30.56 0C30.9863 -2.03055e-06 31.4085 0.0841333 31.8022 0.247583C32.196 0.411034 32.5536 0.650585 32.8546 0.952507C33.1556 1.25443 33.394 1.61278 33.5563 2.00703C33.7185 2.40128 33.8013 2.82368 33.8 3.25V20.75C33.8011 21.6105 33.4604 22.4363 32.8528 23.0457C32.2453 23.6552 31.4206 23.9984 30.56 24H3.24102C2.81461 24.0001 2.39236 23.9161 1.9985 23.7527C1.60464 23.5893 1.2469 23.3498 0.9458 23.0478C0.644701 22.7459 0.406163 22.3875 0.243865 21.9932C0.0815663 21.5989 -0.00130067 21.1764 1.5434e-05 20.75V3.25Z" fill="#FFE0E0"/>
<path fill-rule="evenodd" clip-rule="evenodd" d="M0 5H34V10H0V5Z" fill="white"/>
<path d="M9 14H6C5.44772 14 5 14.4477 5 15V18C5 18.5523 5.44772 19 6 19H9C9.55228 19 10 18.5523 10 18V15C10 14.4477 9.55228 14 9 14Z" fill="white"/>
<path fill-rule="evenodd" clip-rule="evenodd" d="M30.475 16.127C30.648 16.225 30.789 16.375 30.882 16.557L33.88 22.44C34.142 22.954 33.96 23.596 33.473 23.873C33.3284 23.9558 33.1647 23.9996 32.998 24H27.002C26.449 24 26 23.526 26 22.941C26 22.766 26.041 22.594 26.12 22.44L29.118 16.557C29.38 16.042 29.988 15.85 30.475 16.127ZM30 21.565C29.724 21.565 29.5 21.799 29.5 22.087C29.5 22.375 29.724 22.609 30 22.609C30.276 22.609 30.5 22.375 30.5 22.087C30.5016 22.0199 30.4899 21.9531 30.4656 21.8904C30.4413 21.8278 30.4049 21.7706 30.3584 21.7221C30.312 21.6736 30.2564 21.6348 30.1949 21.6078C30.1334 21.5808 30.0672 21.5663 30 21.565ZM30 18.435C29.724 18.435 29.5 18.668 29.5 18.957V20.522C29.5 20.81 29.724 21.043 30 21.043C30.276 21.043 30.5 20.81 30.5 20.522V18.957C30.5016 18.8899 30.4899 18.8231 30.4656 18.7604C30.4413 18.6978 30.4049 18.6406 30.3584 18.5921C30.312 18.5436 30.2564 18.5048 30.1949 18.4778C30.1334 18.4508 30.0672 18.4363 30 18.435Z" fill="#FF4F42"/>
</svg>
