<svg width="35" height="24" viewBox="0 0 35 24" fill="none" xmlns="http://www.w3.org/2000/svg">
<path d="M31.752 0H3.248C1.45418 0 0 1.45418 0 3.248V20.752C0 22.5458 1.45418 24 3.248 24H31.752C33.5458 24 35 22.5458 35 20.752V3.248C35 1.45418 33.5458 0 31.752 0Z" fill="#E8EAED"/>
<path fill-rule="evenodd" clip-rule="evenodd" d="M21.5192 5.122C25.2062 5.122 28.1952 8.089 28.1952 11.749C28.1952 15.409 25.2062 18.376 21.5192 18.376C19.9329 18.3791 18.3973 17.8176 17.1872 16.792C15.978 17.8179 14.4429 18.3795 12.8572 18.376C9.17018 18.376 6.18018 15.409 6.18018 11.749C6.18018 8.089 9.17018 5.122 12.8572 5.122C14.5102 5.122 16.0232 5.718 17.1892 6.705C18.3985 5.67943 19.9336 5.11822 21.5192 5.122Z" fill="#FF5E00"/>
<path fill-rule="evenodd" clip-rule="evenodd" d="M12.8572 5.12201C14.5102 5.12201 16.0232 5.71801 17.1892 6.70501C16.4542 7.32433 15.8634 8.09668 15.458 8.96809C15.0526 9.83949 14.8425 10.7889 14.8422 11.75C14.8422 13.77 15.7522 15.578 17.1872 16.793C15.978 17.8189 14.4429 18.3805 12.8572 18.377C9.17018 18.376 6.18018 15.409 6.18018 11.749C6.18018 8.08901 9.17018 5.12201 12.8572 5.12201Z" fill="#ED0006"/>
<path fill-rule="evenodd" clip-rule="evenodd" d="M21.519 5.12199C25.206 5.12199 28.195 8.08899 28.195 11.749C28.195 15.409 25.206 18.376 21.519 18.376C19.9327 18.3791 18.3971 17.8176 17.187 16.792C17.922 16.1732 18.513 15.4012 18.9184 14.5301C19.3238 13.659 19.534 12.7098 19.5342 11.749C19.5344 10.7881 19.3246 9.83885 18.9195 8.96758C18.5144 8.09631 17.9238 7.3241 17.189 6.70499C18.3988 5.68019 19.9336 5.11909 21.519 5.12199Z" fill="#F9A000"/>
</svg>
