<svg width="47" height="38" viewBox="0 0 47 38" fill="none" xmlns="http://www.w3.org/2000/svg">
<path fill-rule="evenodd" clip-rule="evenodd" d="M25.8007 21.5974L46.0469 28.5688C47.3177 29.0063 47.3177 29.7157 46.0469 30.1532L25.8007 37.1246C24.53 37.5621 22.4699 37.5621 21.1993 37.1246L0.952983 30.1532C-0.317661 29.7157 -0.317661 29.0063 0.952983 28.5688L21.1993 21.5974C22.4699 21.1599 24.53 21.1599 25.8007 21.5974Z" fill="#D0D4D9"/>
<path d="M25.8319 21.5974L38.3079 25.893L25.8319 30.1889C24.5612 30.6264 22.5011 30.6264 21.2305 30.1889L8.75488 25.893L21.2305 21.5974C22.5011 21.1599 24.5612 21.1599 25.8319 21.5974Z" fill="black" fill-opacity="0.0900076"/>
<path opacity="0.5" fill-rule="evenodd" clip-rule="evenodd" d="M25.8007 10.9631L46.0469 17.9344C47.3177 18.372 47.3177 19.0813 46.0469 19.5188L25.8007 26.4902C24.53 26.9277 22.4699 26.9277 21.1993 26.4902L0.952983 19.5188C-0.317661 19.0813 -0.317661 18.372 0.952983 17.9344L21.1993 10.9631C22.4699 10.5255 24.53 10.5255 25.8007 10.9631Z" fill="url(#paint0_linear_2155_34)"/>
<path d="M25.8319 10.9631L38.3079 15.2585L25.8319 19.5545C24.5612 19.992 22.5011 19.992 21.2305 19.5545L8.75488 15.2585L21.2305 10.9631C22.5011 10.5255 24.5612 10.5255 25.8319 10.9631Z" fill="black" fill-opacity="0.0900076"/>
<path d="M25.8007 0.328141L46.0469 7.29953C47.3177 7.73704 47.3177 8.44641 46.0469 8.88392L25.8007 15.8553C24.53 16.2928 22.4699 16.2928 21.1993 15.8553L0.952983 8.88392C-0.317661 8.44641 -0.317661 7.73704 0.952983 7.29953L21.1993 0.328141C22.4699 -0.10938 24.53 -0.10938 25.8007 0.328141Z" fill="url(#paint1_linear_2155_34)"/>
<defs>
<linearGradient id="paint0_linear_2155_34" x1="1.89292e-06" y1="10.6349" x2="9.96352" y2="39.5711" gradientUnits="userSpaceOnUse">
<stop stop-color="#E31AB6"/>
<stop offset="1" stop-color="#F80F55"/>
</linearGradient>
<linearGradient id="paint1_linear_2155_34" x1="1.07884e-06" y1="-2.46965e-06" x2="9.96352" y2="28.9361" gradientUnits="userSpaceOnUse">
<stop stop-color="#8F86C5"/>
<stop offset="1" stop-color="#494DEE"/>
</linearGradient>
</defs>
</svg>
