<svg width="47" height="47" viewBox="0 0 47 47" fill="none" xmlns="http://www.w3.org/2000/svg">
<mask id="mask0_2155_33" style="mask-type:luminance" maskUnits="userSpaceOnUse" x="0" y="0" width="47" height="47">
<path d="M47 0H0V47H47V0Z" fill="white"/>
</mask>
<g mask="url(#mask0_2155_33)">
<path d="M34.3287 4H10C8.34315 4 7 5.34315 7 7V37.1056C7 38.7625 8.34315 40.1056 10 40.1056H34.3287C35.9856 40.1056 37.3287 38.7625 37.3287 37.1056V7C37.3287 5.34315 35.9856 4 34.3287 4Z" fill="url(#paint0_linear_2155_33)"/>
<path d="M32 7.5H12C10.8954 7.5 10 8.39543 10 9.5V19.5C10 20.6046 10.8954 21.5 12 21.5H32C33.1046 21.5 34 20.6046 34 19.5V9.5C34 8.39543 33.1046 7.5 32 7.5Z" fill="white" fill-opacity="0.4"/>
<path d="M19.276 24.5H12.7769C11.5805 24.5 10.6106 25.4699 10.6106 26.6663V26.6663C10.6106 27.8628 11.5805 28.8327 12.7769 28.8327H19.276C20.4724 28.8327 21.4423 27.8628 21.4423 26.6663V26.6663C21.4423 25.4699 20.4724 24.5 19.276 24.5Z" fill="white" fill-opacity="0.2"/>
<path d="M32 32.5H13C11.8954 32.5 11 33.3954 11 34.5C11 35.6046 11.8954 36.5 13 36.5H32C33.1046 36.5 34 35.6046 34 34.5C34 33.3954 33.1046 32.5 32 32.5Z" fill="white" fill-opacity="0.2"/>
<path fill-rule="evenodd" clip-rule="evenodd" d="M27.1692 33.8311C26.642 33.6146 26.1152 34.1414 26.3317 34.6686L30.534 44.9055C30.7081 45.3295 31.2576 45.4397 31.5817 45.1156L33.3427 43.3547L36.2361 46.2481C36.5181 46.5301 36.9753 46.5301 37.2573 46.2481L38.7485 44.757C39.0305 44.475 39.0305 44.0178 38.7485 43.7358L35.855 40.8423L37.6162 39.0811C37.9403 38.757 37.8301 38.2075 37.4061 38.0335L27.1692 33.8311Z" fill="#D0D4D9"/>
</g>
<defs>
<linearGradient id="paint0_linear_2155_33" x1="10.1144" y1="4" x2="39.4325" y2="35.1189" gradientUnits="userSpaceOnUse">
<stop stop-color="#134FE9"/>
<stop offset="1" stop-color="#8415F3"/>
</linearGradient>
</defs>
</svg>
